<svg id="Layer_1" data-name="Layer 1" xmlns="http://www.w3.org/2000/svg" viewBox="0 0 600 544"><defs><style>.cls-1{fill:#ce0e2d;}.cls-2{opacity:0.07;}.cls-3{fill:#fff;}</style></defs><rect class="cls-1" y="0.03" width="600" height="544"/><g class="cls-2"><path d="M398.35,293.7a2.52,2.52,0,0,0-2.27,2.34c-9.37,93.48-33.21,161.65-74.29,199.1a2.92,2.92,0,0,0-.18,4.13l.05.05a3.24,3.24,0,0,0,.86.66,122.77,122.77,0,0,0,36.59,5.77c82.54,0,152.22-89.17,176.19-209.43a2.51,2.51,0,0,0-2.25-2.67h-45Z"/><path d="M240.84,506c26.13,0,107.91,0,135.21-177.6.5-3.32-3.48-4.61-4.41-1.43-12.8,43.62-38.71,114.51-71.75,114.51-23.72,0-51.11-36.51-80-145.89a2.37,2.37,0,0,0-2.2-1.92l-150.65,0a2.68,2.68,0,0,0-2.35,2.52v.2a.89.89,0,0,0,0,.23v.4C89.05,418.37,158.71,506,240.84,506Z"/><path d="M223.83,215.6c-.51,3.32,3.5,4.61,4.43,1.43C241.12,173.44,267,102.52,300,102.52c23.72,0,51.11,36.51,80,145.89a2.33,2.33,0,0,0,2.17,1.92H533a2.65,2.65,0,0,0,2.32-2.94V247C510.78,125.63,441.2,38,359.06,38,332.93,38,251.2,38,223.83,215.6Z"/><path d="M67,250.38H201.74a2.52,2.52,0,0,0,2.18-2.32c9.47-93.48,33.21-161.67,74.29-199.2a2.94,2.94,0,0,0,0-4.17h0a2.52,2.52,0,0,0-.85-.63,121.24,121.24,0,0,0-36.5-5.77c-82.51,0-152.19,89.14-176.16,209.4v.2A2.52,2.52,0,0,0,67,250.38Z"/></g><path class="cls-3" d="M166.46,366.93H182v4.73H160.54V337.54h5.92Z"/><path class="cls-3" d="M212.24,355.49a20.88,20.88,0,0,1-1.74,8.8,13.05,13.05,0,0,1-4.95,5.81,14.54,14.54,0,0,1-14.82,0,13.3,13.3,0,0,1-5-5.77,20.22,20.22,0,0,1-1.79-8.65v-1.92a20.79,20.79,0,0,1,1.77-8.82,13.3,13.3,0,0,1,5-5.84,13.51,13.51,0,0,1,7.39-2,13.79,13.79,0,0,1,7.4,2,13.13,13.13,0,0,1,5,5.77,20.79,20.79,0,0,1,1.78,8.75Zm-5.93-1.78q0-5.67-2.15-8.7a7.57,7.57,0,0,0-12.09,0q-2.16,3-2.21,8.52v2q0,5.63,2.19,8.7a7.07,7.07,0,0,0,6.08,3.07,7,7,0,0,0,6.06-3c1.41-2,2.12-4.93,2.12-8.77Z"/><path class="cls-3" d="M244.3,367.23a11.31,11.31,0,0,1-5.13,3.66,20.92,20.92,0,0,1-7.46,1.24,14.75,14.75,0,0,1-7.59-1.94,13.06,13.06,0,0,1-5.1-5.57,19.58,19.58,0,0,1-1.86-8.45V353.5q0-7.74,3.7-12.08t10.34-4.35c3.8,0,6.81.94,9.05,2.82a12.23,12.23,0,0,1,4,8.12h-5.82q-1-6.17-7.14-6.16a7,7,0,0,0-6.06,2.87q-2.07,2.86-2.15,8.42v2.62q0,5.52,2.34,8.58a7.68,7.68,0,0,0,6.48,3.06q4.55,0,6.46-2.07v-6.68h-7v-4.5H244.3Z"/><path class="cls-3" d="M257.07,371.66h-5.9V337.54h5.9Z"/><path class="cls-3" d="M291.43,371.66H285.5l-15.21-24.21v24.21h-5.93V337.54h5.93l15.26,24.3v-24.3h5.88Z"/><path class="cls-3" d="M336.55,367.23a11.31,11.31,0,0,1-5.13,3.66,20.92,20.92,0,0,1-7.46,1.24,14.75,14.75,0,0,1-7.59-1.94,13.06,13.06,0,0,1-5.1-5.57,19.58,19.58,0,0,1-1.86-8.45V353.5q0-7.74,3.7-12.08t10.34-4.35c3.8,0,6.81.94,9.05,2.82a12.23,12.23,0,0,1,4,8.12h-5.82q-1-6.17-7.14-6.16a7,7,0,0,0-6.06,2.87q-2.07,2.86-2.15,8.42v2.62q0,5.52,2.34,8.58a7.68,7.68,0,0,0,6.48,3.06q4.54,0,6.46-2.07v-6.68h-7v-4.5h12.94Z"/><path class="cls-3" d="M368,337.54v22.8a11.1,11.1,0,0,1-3.48,8.62,13.25,13.25,0,0,1-9.27,3.17q-5.86,0-9.31-3.13t-3.44-8.68V337.54h5.9v22.83a7.22,7.22,0,0,0,1.74,5.22,6.77,6.77,0,0,0,5.11,1.81q6.84,0,6.84-7.22V337.54Z"/><path class="cls-3" d="M380.61,371.66h-5.9V337.54h5.9Z"/><path class="cls-3" d="M387.9,371.66V337.54H398a15.85,15.85,0,0,1,8,2,13.79,13.79,0,0,1,5.42,5.72,18.19,18.19,0,0,1,1.93,8.49v1.71a18.1,18.1,0,0,1-1.94,8.53,13.57,13.57,0,0,1-5.51,5.67,16.5,16.5,0,0,1-8.19,2Zm5.93-29.34v24.61h3.87a8.88,8.88,0,0,0,7.16-2.92q2.49-2.92,2.54-8.38v-1.9q0-5.55-2.41-8.48a8.55,8.55,0,0,0-7-2.93Z"/><path class="cls-3" d="M439.21,356.43h-14v10.5h16.38v4.73H419.26V337.54h22.15v4.78H425.19v9.42h14Z"/><path class="cls-3" d="M319.53,161.26H367V275.67A8.35,8.35,0,0,1,358.6,284H241.4a8.35,8.35,0,0,1-8.37-8.37V113.82a8.35,8.35,0,0,1,8.37-8.37h69.76v47.44A8.4,8.4,0,0,0,319.53,161.26Zm9.77,22.32H270.7a4.21,4.21,0,0,0-4.19,4.19v2.79a4.21,4.21,0,0,0,4.19,4.19h58.6a4.2,4.2,0,0,0,4.18-4.19v-2.79A4.2,4.2,0,0,0,329.3,183.58Zm4.18,26.51a4.19,4.19,0,0,0-4.18-4.18H270.7a4.2,4.2,0,0,0-4.19,4.18v2.79a4.2,4.2,0,0,0,4.19,4.19h58.6a4.19,4.19,0,0,0,4.18-4.19Zm0,22.33a4.2,4.2,0,0,0-4.18-4.19H270.7a4.21,4.21,0,0,0-4.19,4.19v2.79a4.2,4.2,0,0,0,4.19,4.18h58.6a4.19,4.19,0,0,0,4.18-4.18ZM367,150.1H322.32V105.45h2.13a8.41,8.41,0,0,1,5.93,2.44l34.15,34.19A8.34,8.34,0,0,1,367,148Z"/><path class="cls-3" d="M40.09,433.15H36.71v-25.6h3.38Z"/><path class="cls-3" d="M48.83,414.13l.1,2.39a6.93,6.93,0,0,1,5.7-2.75q6,0,6.08,6.81v12.57H57.46V420.56a4.38,4.38,0,0,0-.94-3,3.78,3.78,0,0,0-2.88-1,4.69,4.69,0,0,0-2.77.85A5.76,5.76,0,0,0,49,419.59v13.56H45.75v-19Z"/><path class="cls-3" d="M76.69,428.1a2.39,2.39,0,0,0-1-2.05,9.61,9.61,0,0,0-3.46-1.25,16.84,16.84,0,0,1-3.92-1.27,5.5,5.5,0,0,1-2.14-1.76,4.15,4.15,0,0,1-.7-2.42,4.94,4.94,0,0,1,2-4,7.71,7.71,0,0,1,5-1.62,8,8,0,0,1,5.25,1.67,5.32,5.32,0,0,1,2,4.28H76.49a2.94,2.94,0,0,0-1.13-2.31,4.28,4.28,0,0,0-2.86-1,4.39,4.39,0,0,0-2.77.77,2.44,2.44,0,0,0-1,2,2,2,0,0,0,.94,1.78A11.3,11.3,0,0,0,73,422.16a17.53,17.53,0,0,1,4,1.3,5.72,5.72,0,0,1,2.24,1.82,4.44,4.44,0,0,1,.73,2.59,4.88,4.88,0,0,1-2,4.09,8.58,8.58,0,0,1-5.29,1.54,9.55,9.55,0,0,1-4-.81,6.5,6.5,0,0,1-2.75-2.26,5.4,5.4,0,0,1-1-3.14h3.25a3.37,3.37,0,0,0,1.31,2.59,5.09,5.09,0,0,0,3.23,1,5.3,5.3,0,0,0,3-.74A2.3,2.3,0,0,0,76.69,428.1Z"/><path class="cls-3" d="M88.59,409.52v4.61h3.55v2.51H88.59v11.81a2.71,2.71,0,0,0,.47,1.72,2,2,0,0,0,1.62.57,8,8,0,0,0,1.55-.21v2.62a9.65,9.65,0,0,1-2.5.35,4.06,4.06,0,0,1-3.29-1.32,5.72,5.72,0,0,1-1.1-3.75V416.64H81.87v-2.51h3.47v-4.61Z"/><path class="cls-3" d="M105.13,417a10,10,0,0,0-1.6-.12,4.28,4.28,0,0,0-4.34,2.73v13.5H95.94v-19H99.1l.05,2.19a5.07,5.07,0,0,1,4.54-2.55,3.38,3.38,0,0,1,1.44.25Z"/><path class="cls-3" d="M119.86,431.26a6.91,6.91,0,0,1-5.57,2.24,5.9,5.9,0,0,1-4.63-1.77,7.59,7.59,0,0,1-1.61-5.23V414.13h3.25v12.28q0,4.33,3.51,4.33,3.73,0,5-2.78V414.13H123v19h-3.09Z"/><path class="cls-3" d="M135.59,430.84a4.68,4.68,0,0,0,3-1,3.7,3.7,0,0,0,1.44-2.64h3.08a5.9,5.9,0,0,1-1.12,3.11,7.51,7.51,0,0,1-2.77,2.36,8.1,8.1,0,0,1-3.67.88,7.84,7.84,0,0,1-6.18-2.6,10.3,10.3,0,0,1-2.29-7.09v-.54a11.45,11.45,0,0,1,1-4.94,7.75,7.75,0,0,1,2.93-3.36,8.27,8.27,0,0,1,4.5-1.2,7.61,7.61,0,0,1,5.32,1.92,6.86,6.86,0,0,1,2.26,5h-3.08a4.49,4.49,0,0,0-1.39-3,4.37,4.37,0,0,0-3.11-1.18,4.55,4.55,0,0,0-3.84,1.78,8.44,8.44,0,0,0-1.36,5.16V424a8.25,8.25,0,0,0,1.35,5.07A4.6,4.6,0,0,0,135.59,430.84Z"/><path class="cls-3" d="M151.22,409.52v4.61h3.55v2.51h-3.55v11.81a2.71,2.71,0,0,0,.47,1.72,2,2,0,0,0,1.62.57,7.92,7.92,0,0,0,1.55-.21v2.62a9.65,9.65,0,0,1-2.5.35,4.06,4.06,0,0,1-3.29-1.32,5.72,5.72,0,0,1-1.1-3.75V416.64H144.5v-2.51H148v-4.61Z"/><path class="cls-3" d="M158.58,409.08a1.93,1.93,0,0,1,.49-1.33,1.79,1.79,0,0,1,1.43-.55,1.83,1.83,0,0,1,1.44.55,1.89,1.89,0,0,1,.49,1.33,1.84,1.84,0,0,1-.49,1.32,1.89,1.89,0,0,1-1.44.53,1.85,1.85,0,0,1-1.43-.53A1.89,1.89,0,0,1,158.58,409.08Zm3.52,24.07h-3.25v-19h3.25Z"/><path class="cls-3" d="M166.44,423.46a11.29,11.29,0,0,1,1.1-5A8.14,8.14,0,0,1,170.6,415a8.33,8.33,0,0,1,4.47-1.22,8,8,0,0,1,6.29,2.69,10.37,10.37,0,0,1,2.4,7.16v.23a11.31,11.31,0,0,1-1.07,5,8.08,8.08,0,0,1-3,3.44,8.42,8.42,0,0,1-4.54,1.23,8,8,0,0,1-6.27-2.69,10.31,10.31,0,0,1-2.4-7.12Zm3.27.39a8.13,8.13,0,0,0,1.47,5.08,4.72,4.72,0,0,0,3.93,1.91A4.64,4.64,0,0,0,179,428.9a8.84,8.84,0,0,0,1.46-5.44,8.1,8.1,0,0,0-1.48-5.07,4.71,4.71,0,0,0-4-1.94,4.65,4.65,0,0,0-3.88,1.91A8.82,8.82,0,0,0,169.71,423.85Z"/><path class="cls-3" d="M190.91,414.13l.11,2.39a6.92,6.92,0,0,1,5.69-2.75q6,0,6.08,6.81v12.57h-3.25V420.56a4.34,4.34,0,0,0-.94-3,3.74,3.74,0,0,0-2.87-1,4.72,4.72,0,0,0-2.78.85,5.65,5.65,0,0,0-1.86,2.21v13.56h-3.26v-19Z"/><path class="cls-3" d="M218.77,428.1a2.4,2.4,0,0,0-1-2.05,9.68,9.68,0,0,0-3.46-1.25,16.68,16.68,0,0,1-3.92-1.27,5.53,5.53,0,0,1-2.15-1.76,4.22,4.22,0,0,1-.69-2.42,5,5,0,0,1,2-4,7.74,7.74,0,0,1,5.06-1.62,8,8,0,0,1,5.24,1.67,5.3,5.3,0,0,1,2,4.28h-3.27a3,3,0,0,0-1.14-2.31,4.24,4.24,0,0,0-2.85-1,4.42,4.42,0,0,0-2.78.77,2.43,2.43,0,0,0-1,2,2,2,0,0,0,.93,1.78,11.28,11.28,0,0,0,3.37,1.14,17.6,17.6,0,0,1,3.94,1.3,5.65,5.65,0,0,1,2.24,1.82,4.44,4.44,0,0,1,.73,2.59,4.88,4.88,0,0,1-2,4.09,8.56,8.56,0,0,1-5.29,1.54,9.55,9.55,0,0,1-4-.81,6.56,6.56,0,0,1-2.75-2.26,5.46,5.46,0,0,1-1-3.14h3.25a3.34,3.34,0,0,0,1.31,2.59,5.06,5.06,0,0,0,3.22,1,5.35,5.35,0,0,0,3-.74A2.31,2.31,0,0,0,218.77,428.1Z"/><path class="cls-3" d="M239.58,409.52v4.61h3.55v2.51h-3.55v11.81a2.65,2.65,0,0,0,.48,1.72,2,2,0,0,0,1.62.57,7.84,7.84,0,0,0,1.54-.21v2.62a9.52,9.52,0,0,1-2.49.35,4,4,0,0,1-3.29-1.32,5.67,5.67,0,0,1-1.11-3.75V416.64h-3.46v-2.51h3.46v-4.61Z"/><path class="cls-3" d="M245.72,423.46a11.16,11.16,0,0,1,1.1-5,8.14,8.14,0,0,1,3.06-3.44,8.28,8.28,0,0,1,4.47-1.22,8,8,0,0,1,6.28,2.69,10.37,10.37,0,0,1,2.4,7.16v.23a11.3,11.3,0,0,1-1.06,5,8.08,8.08,0,0,1-3,3.44,8.43,8.43,0,0,1-4.55,1.23,8,8,0,0,1-6.26-2.69,10.31,10.31,0,0,1-2.4-7.12Zm3.27.39a8.13,8.13,0,0,0,1.47,5.08,5,5,0,0,0,7.86,0,8.91,8.91,0,0,0,1.46-5.44,8.1,8.1,0,0,0-1.48-5.07,5,5,0,0,0-7.84,0A8.88,8.88,0,0,0,249,423.85Z"/><path class="cls-3" d="M279.93,430.39h12.12v2.76H276.53v-25.6h3.4Z"/><path class="cls-3" d="M294.53,423.46a11.29,11.29,0,0,1,1.1-5,8.14,8.14,0,0,1,3.06-3.44,8.33,8.33,0,0,1,4.47-1.22,8,8,0,0,1,6.29,2.69,10.37,10.37,0,0,1,2.4,7.16v.23a11.31,11.31,0,0,1-1.07,5,8,8,0,0,1-3,3.44,8.42,8.42,0,0,1-4.54,1.23,8,8,0,0,1-6.27-2.69,10.31,10.31,0,0,1-2.4-7.12Zm3.27.39a8.13,8.13,0,0,0,1.47,5.08,5,5,0,0,0,7.87,0,8.91,8.91,0,0,0,1.46-5.44,8.1,8.1,0,0,0-1.49-5.07,4.71,4.71,0,0,0-3.95-1.94,4.65,4.65,0,0,0-3.88,1.91A8.82,8.82,0,0,0,297.8,423.85Z"/><path class="cls-3" d="M315.15,423.48a11.19,11.19,0,0,1,2.06-7.08,6.59,6.59,0,0,1,5.45-2.63,6.52,6.52,0,0,1,5.43,2.47l.16-2.11h3v18.56a7.74,7.74,0,0,1-2.19,5.82,8.11,8.11,0,0,1-5.88,2.12,9.69,9.69,0,0,1-4-.88,6.83,6.83,0,0,1-3-2.4l1.69-2a6.35,6.35,0,0,0,5.11,2.58,5,5,0,0,0,3.7-1.34,5.08,5.08,0,0,0,1.33-3.76v-1.63a6.69,6.69,0,0,1-5.33,2.25,6.49,6.49,0,0,1-5.4-2.69A11.76,11.76,0,0,1,315.15,423.48Zm3.27.37a8.51,8.51,0,0,0,1.32,5,4.27,4.27,0,0,0,3.69,1.84,4.76,4.76,0,0,0,4.52-2.8v-8.68a4.82,4.82,0,0,0-4.48-2.73,4.32,4.32,0,0,0-3.71,1.85A9.29,9.29,0,0,0,318.42,423.85Z"/><path class="cls-3" d="M349.17,433.15h-3.38v-25.6h3.38Z"/><path class="cls-3" d="M357.9,414.13l.11,2.39a6.92,6.92,0,0,1,5.69-2.75q6,0,6.09,6.81v12.57h-3.26V420.56a4.34,4.34,0,0,0-.94-3,3.74,3.74,0,0,0-2.87-1,4.72,4.72,0,0,0-2.78.85,5.65,5.65,0,0,0-1.86,2.21v13.56h-3.25v-19Z"/><path class="cls-3" d="M388,409.52v4.61h3.55v2.51H388v11.81a2.65,2.65,0,0,0,.48,1.72,2,2,0,0,0,1.62.57,7.84,7.84,0,0,0,1.54-.21v2.62a9.58,9.58,0,0,1-2.49.35,4,4,0,0,1-3.29-1.32,5.67,5.67,0,0,1-1.11-3.75V416.64H381.3v-2.51h3.46v-4.61Z"/><path class="cls-3" d="M394.15,423.46a11.16,11.16,0,0,1,1.1-5,8.14,8.14,0,0,1,3.06-3.44,8.28,8.28,0,0,1,4.47-1.22,8,8,0,0,1,6.28,2.69,10.37,10.37,0,0,1,2.4,7.16v.23a11.3,11.3,0,0,1-1.06,5,8.08,8.08,0,0,1-3,3.44,8.43,8.43,0,0,1-4.55,1.23,8,8,0,0,1-6.26-2.69,10.31,10.31,0,0,1-2.4-7.12Zm3.27.39a8.13,8.13,0,0,0,1.47,5.08,5,5,0,0,0,7.86,0,8.91,8.91,0,0,0,1.46-5.44,8.1,8.1,0,0,0-1.48-5.07,5,5,0,0,0-7.84,0A8.88,8.88,0,0,0,397.42,423.85Z"/><path class="cls-3" d="M428.34,423.13v10H425v-25.6h9.44A9.51,9.51,0,0,1,441,409.7a7.29,7.29,0,0,1,2.38,5.67,7.17,7.17,0,0,1-2.33,5.74c-1.55,1.35-3.78,2-6.67,2Zm0-2.76h6.06a6.06,6.06,0,0,0,4.15-1.28A4.67,4.67,0,0,0,440,415.4a4.8,4.8,0,0,0-1.44-3.66,5.68,5.68,0,0,0-3.95-1.43h-6.26Z"/><path class="cls-3" d="M458.71,433.15a7,7,0,0,1-.45-2,7.28,7.28,0,0,1-5.42,2.36,6.71,6.71,0,0,1-4.61-1.59,5.16,5.16,0,0,1-1.8-4,5.37,5.37,0,0,1,2.25-4.61,10.65,10.65,0,0,1,6.36-1.65h3.16v-1.49a3.67,3.67,0,0,0-1-2.72,4.11,4.11,0,0,0-3-1,4.78,4.78,0,0,0-2.92.88,2.59,2.59,0,0,0-1.18,2.13h-3.27a4.5,4.5,0,0,1,1-2.75,6.83,6.83,0,0,1,2.75-2.1,9.13,9.13,0,0,1,3.8-.78,7.5,7.5,0,0,1,5.15,1.65,5.93,5.93,0,0,1,1.94,4.52v8.76a10.8,10.8,0,0,0,.66,4.16v.29Zm-5.39-2.48a5.8,5.8,0,0,0,2.9-.79,4.83,4.83,0,0,0,2-2.06v-3.9h-2.55c-4,0-6,1.16-6,3.5a3,3,0,0,0,1,2.39A3.94,3.94,0,0,0,453.32,430.67Z"/><path class="cls-3" d="M472.51,428.38l4.43-14.25h3.48l-7.64,21.95q-1.78,4.76-5.65,4.75l-.61-.06-1.22-.22v-2.64l.88.07a4.3,4.3,0,0,0,2.58-.67,4.86,4.86,0,0,0,1.52-2.44l.72-1.94-6.79-18.8h3.56Z"/><path class="cls-3" d="M486.86,433.15H483.6v-27h3.26Z"/><path class="cls-3" d="M491.2,423.46a11.16,11.16,0,0,1,1.1-5,8.19,8.19,0,0,1,3.05-3.44,8.34,8.34,0,0,1,4.48-1.22,8,8,0,0,1,6.28,2.69,10.37,10.37,0,0,1,2.4,7.16v.23a11.3,11.3,0,0,1-1.06,5,8.08,8.08,0,0,1-3,3.44,8.45,8.45,0,0,1-4.55,1.23,8,8,0,0,1-6.26-2.69,10.31,10.31,0,0,1-2.4-7.12Zm3.27.39a8.19,8.19,0,0,0,1.46,5.08,4.72,4.72,0,0,0,3.93,1.91,4.65,4.65,0,0,0,3.94-1.94,8.91,8.91,0,0,0,1.46-5.44,8.1,8.1,0,0,0-1.49-5.07,4.94,4.94,0,0,0-7.83,0A8.88,8.88,0,0,0,494.47,423.85Z"/><path class="cls-3" d="M520.22,430.84a4.7,4.7,0,0,0,3-1,3.7,3.7,0,0,0,1.44-2.64h3.08a5.91,5.91,0,0,1-1.13,3.11,7.36,7.36,0,0,1-2.77,2.36,8,8,0,0,1-3.66.88,7.84,7.84,0,0,1-6.18-2.6,10.3,10.3,0,0,1-2.29-7.09v-.54a11.45,11.45,0,0,1,1-4.94,7.8,7.8,0,0,1,2.92-3.36,8.3,8.3,0,0,1,4.51-1.2,7.63,7.63,0,0,1,5.32,1.92,6.9,6.9,0,0,1,2.26,5H524.7a4.46,4.46,0,0,0-1.4-3,4.33,4.33,0,0,0-3.1-1.18,4.55,4.55,0,0,0-3.84,1.78,8.37,8.37,0,0,0-1.36,5.16V424a8.25,8.25,0,0,0,1.35,5.07A4.58,4.58,0,0,0,520.22,430.84Z"/><path class="cls-3" d="M531.45,409.08a1.92,1.92,0,0,1,.48-1.33,2.16,2.16,0,0,1,2.88,0,1.89,1.89,0,0,1,.49,1.33,1.84,1.84,0,0,1-.49,1.32,1.92,1.92,0,0,1-3.36-1.32ZM535,433.15h-3.26v-19H535Z"/><path class="cls-3" d="M544.58,409.52v4.61h3.55v2.51h-3.55v11.81a2.65,2.65,0,0,0,.48,1.72,2,2,0,0,0,1.61.57,7.92,7.92,0,0,0,1.55-.21v2.62a9.6,9.6,0,0,1-2.5.35,4,4,0,0,1-3.28-1.32,5.67,5.67,0,0,1-1.11-3.75V416.64h-3.46v-2.51h3.46v-4.61Z"/><path class="cls-3" d="M558.15,428.38l4.43-14.25h3.48l-7.64,21.95q-1.78,4.76-5.65,4.75l-.61-.06-1.21-.22v-2.64l.87.07a4.3,4.3,0,0,0,2.58-.67,4.86,4.86,0,0,0,1.52-2.44l.72-1.94-6.78-18.8h3.55Z"/><path class="cls-3" d="M130.61,466a27.15,27.15,0,0,1,1.06-7.63,22.42,22.42,0,0,1,3.17-6.65,13.69,13.69,0,0,1,4.38-4.22l.67,2.15a14.06,14.06,0,0,0-4.21,6,25.85,25.85,0,0,0-1.8,9.05l0,1.5A26.26,26.26,0,0,0,136.34,478a13.94,13.94,0,0,0,3.55,4.67l-.67,2a13.85,13.85,0,0,1-4.46-4.36A24.42,24.42,0,0,1,130.61,466Z"/><path class="cls-3" d="M159.88,471.86l3.65-14.53h3.25l-5.53,19h-2.64L154,461.93l-4.5,14.42h-2.64l-5.52-19h3.24l3.74,14.23,4.43-14.23h2.62Z"/><path class="cls-3" d="M186.93,471.86l3.65-14.53h3.26l-5.54,19h-2.64L181,461.93l-4.5,14.42H173.9l-5.52-19h3.24l3.74,14.23,4.43-14.23h2.62Z"/><path class="cls-3" d="M214,471.86l3.66-14.53h3.25l-5.54,19h-2.63l-4.63-14.42-4.5,14.42H201l-5.52-19h3.23l3.75,14.23,4.42-14.23h2.62Z"/><path class="cls-3" d="M222.08,474.64a2,2,0,0,1,.51-1.41,1.91,1.91,0,0,1,1.5-.56,1.86,1.86,0,0,1,2,2,1.86,1.86,0,0,1-.52,1.35,2,2,0,0,1-1.52.55,1.83,1.83,0,0,1-2-1.9Z"/><path class="cls-3" d="M247.56,467.05a11.41,11.41,0,0,1-2,7,6.37,6.37,0,0,1-5.38,2.66,7,7,0,0,1-5.45-2.2v9.16h-3.25V457.33h3l.16,2.11a6.67,6.67,0,0,1,5.52-2.47,6.5,6.5,0,0,1,5.42,2.59,11.51,11.51,0,0,1,2,7.19Zm-3.26-.37a8.35,8.35,0,0,0-1.37-5.08,4.42,4.42,0,0,0-3.76-1.87,4.8,4.8,0,0,0-4.43,2.62v9.09a4.78,4.78,0,0,0,4.47,2.6,4.4,4.4,0,0,0,3.71-1.85A9.17,9.17,0,0,0,244.3,466.68Z"/><path class="cls-3" d="M263.43,476.35a6.92,6.92,0,0,1-.46-2,7.25,7.25,0,0,1-5.41,2.36,6.72,6.72,0,0,1-4.62-1.59,5.16,5.16,0,0,1-1.8-4,5.35,5.35,0,0,1,2.26-4.61,10.61,10.61,0,0,1,6.35-1.65h3.17v-1.49a3.67,3.67,0,0,0-1-2.72,4.12,4.12,0,0,0-3-1,4.75,4.75,0,0,0-2.91.88,2.59,2.59,0,0,0-1.18,2.13h-3.27a4.5,4.5,0,0,1,1-2.75,6.8,6.8,0,0,1,2.74-2.1,9.17,9.17,0,0,1,3.81-.78,7.5,7.5,0,0,1,5.15,1.65,5.92,5.92,0,0,1,1.93,4.52v8.76a10.6,10.6,0,0,0,.67,4.16v.29Zm-5.4-2.48a5.77,5.77,0,0,0,2.9-.79,4.8,4.8,0,0,0,2-2.06v-3.9h-2.55c-4,0-6,1.16-6,3.5a3,3,0,0,0,1,2.39A4,4,0,0,0,258,473.87Z"/><path class="cls-3" d="M277.23,471.58l4.43-14.25h3.48l-7.65,21.95q-1.77,4.75-5.64,4.75l-.62-.06-1.21-.22v-2.64l.88.07a4.27,4.27,0,0,0,2.57-.67,4.8,4.8,0,0,0,1.53-2.44l.72-1.94-6.79-18.8h3.55Z"/><path class="cls-3" d="M291.57,476.35h-3.25v-27h3.25Z"/><path class="cls-3" d="M295.91,466.66a11.29,11.29,0,0,1,1.1-5,8.14,8.14,0,0,1,3.06-3.44,8.33,8.33,0,0,1,4.47-1.22,8,8,0,0,1,6.29,2.69,10.37,10.37,0,0,1,2.4,7.16v.23a11.31,11.31,0,0,1-1.07,5,8,8,0,0,1-3,3.44,8.42,8.42,0,0,1-4.54,1.23,8,8,0,0,1-6.27-2.69,10.31,10.31,0,0,1-2.4-7.12Zm3.27.39a8.13,8.13,0,0,0,1.47,5.08,5,5,0,0,0,7.87,0,8.91,8.91,0,0,0,1.46-5.44,8.1,8.1,0,0,0-1.49-5.07,4.94,4.94,0,0,0-7.83,0A8.82,8.82,0,0,0,299.18,467.05Z"/><path class="cls-3" d="M324.93,474A4.73,4.73,0,0,0,328,473a3.75,3.75,0,0,0,1.44-2.64h3.07a5.9,5.9,0,0,1-1.12,3.11,7.43,7.43,0,0,1-2.77,2.36,8.07,8.07,0,0,1-3.67.88,7.82,7.82,0,0,1-6.17-2.6,10.3,10.3,0,0,1-2.3-7.09v-.54a11.45,11.45,0,0,1,1-4.94,7.82,7.82,0,0,1,2.93-3.36,8.28,8.28,0,0,1,4.51-1.2,7.6,7.6,0,0,1,5.31,1.92,6.82,6.82,0,0,1,2.26,5h-3.07a4.5,4.5,0,0,0-1.4-3,4.34,4.34,0,0,0-3.1-1.18,4.53,4.53,0,0,0-3.84,1.78,8.37,8.37,0,0,0-1.37,5.16v.62a8.23,8.23,0,0,0,1.36,5.06A4.57,4.57,0,0,0,324.93,474Z"/><path class="cls-3" d="M336.17,452.28a1.92,1.92,0,0,1,.48-1.33,2.15,2.15,0,0,1,2.87,0,1.89,1.89,0,0,1,.5,1.33,2,2,0,0,1-3.37,1.32A1.88,1.88,0,0,1,336.17,452.28Zm3.51,24.07h-3.25v-19h3.25Z"/><path class="cls-3" d="M349.3,452.72v4.61h3.55v2.51H349.3v11.81a2.71,2.71,0,0,0,.47,1.72,2,2,0,0,0,1.62.57,8,8,0,0,0,1.55-.21v2.62a9.65,9.65,0,0,1-2.5.35,4.06,4.06,0,0,1-3.29-1.32,5.72,5.72,0,0,1-1.1-3.75V459.84h-3.47v-2.51h3.47v-4.61Z"/><path class="cls-3" d="M362.87,471.58l4.43-14.25h3.48l-7.65,21.95q-1.77,4.75-5.64,4.75l-.62-.06-1.21-.22v-2.64l.88.07a4.32,4.32,0,0,0,2.58-.67,4.86,4.86,0,0,0,1.52-2.44l.72-1.94-6.79-18.8h3.55Z"/><path class="cls-3" d="M371.87,474.64a2.08,2.08,0,0,1,.5-1.41,1.91,1.91,0,0,1,1.5-.56,2,2,0,0,1,1.52.56,2,2,0,0,1,.52,1.41,1.86,1.86,0,0,1-.52,1.35,2,2,0,0,1-1.52.55,1.91,1.91,0,0,1-1.5-.55A1.93,1.93,0,0,1,371.87,474.64Z"/><path class="cls-3" d="M388.9,474a4.68,4.68,0,0,0,3-1.05,3.68,3.68,0,0,0,1.44-2.64h3.08a5.83,5.83,0,0,1-1.13,3.11,7.4,7.4,0,0,1-2.76,2.36,8.1,8.1,0,0,1-3.67.88,7.84,7.84,0,0,1-6.18-2.6,10.3,10.3,0,0,1-2.29-7.09v-.54a11.45,11.45,0,0,1,1-4.94,7.75,7.75,0,0,1,2.93-3.36,8.27,8.27,0,0,1,4.5-1.2,7.61,7.61,0,0,1,5.32,1.92,6.86,6.86,0,0,1,2.26,5h-3.08a4.49,4.49,0,0,0-1.39-3,4.37,4.37,0,0,0-3.11-1.18,4.55,4.55,0,0,0-3.84,1.78,8.37,8.37,0,0,0-1.36,5.16v.62a8.24,8.24,0,0,0,1.35,5.06A4.6,4.6,0,0,0,388.9,474Z"/><path class="cls-3" d="M399.25,466.66a11.29,11.29,0,0,1,1.1-5,8.11,8.11,0,0,1,7.54-4.66,8,8,0,0,1,6.28,2.69,10.37,10.37,0,0,1,2.4,7.16v.23a11.44,11.44,0,0,1-1.06,5,8.1,8.1,0,0,1-3.05,3.44,8.39,8.39,0,0,1-4.54,1.23,8,8,0,0,1-6.27-2.69,10.31,10.31,0,0,1-2.4-7.12Zm3.27.39a8.13,8.13,0,0,0,1.47,5.08,4.72,4.72,0,0,0,3.93,1.91,4.66,4.66,0,0,0,3.94-1.94,8.91,8.91,0,0,0,1.46-5.44,8.1,8.1,0,0,0-1.49-5.07,4.94,4.94,0,0,0-7.83,0A8.88,8.88,0,0,0,402.52,467.05Z"/><path class="cls-3" d="M423.71,457.33l.08,2.11a7,7,0,0,1,5.65-2.47q4,0,5.43,3.06a7.13,7.13,0,0,1,2.47-2.21,7.3,7.3,0,0,1,3.59-.85q6.26,0,6.37,6.63v12.75H444V463.79a4.35,4.35,0,0,0-.93-3,4.07,4.07,0,0,0-3.13-1,4.26,4.26,0,0,0-3,1.09,4.37,4.37,0,0,0-1.39,2.9v12.63h-3.27V463.88c0-2.76-1.35-4.15-4.06-4.15a4.36,4.36,0,0,0-4.38,2.73v13.89h-3.25v-19Z"/><path class="cls-3" d="M459.71,466.13a27.42,27.42,0,0,1-1,7.52,22.35,22.35,0,0,1-3.15,6.63,13.78,13.78,0,0,1-4.44,4.33l-.68-2a14.19,14.19,0,0,0,4.35-6.44,28.14,28.14,0,0,0,1.68-9.7v-.56a28.64,28.64,0,0,0-.78-6.86,23,23,0,0,0-2.15-5.69,13.21,13.21,0,0,0-3.1-3.92l.68-2a13.79,13.79,0,0,1,4.42,4.29,22.49,22.49,0,0,1,3.15,6.63A27.7,27.7,0,0,1,459.71,466.13Z"/><path class="cls-3" d="M464.79,474.64a2,2,0,0,1,.5-1.41,1.91,1.91,0,0,1,1.5-.56,1.86,1.86,0,0,1,2,2,1.86,1.86,0,0,1-.52,1.35,2,2,0,0,1-1.52.55,1.91,1.91,0,0,1-1.5-.55A1.88,1.88,0,0,1,464.79,474.64Z"/></svg>