<svg id="Layer_1" data-name="Layer 1" xmlns="http://www.w3.org/2000/svg" xmlns:xlink="http://www.w3.org/1999/xlink" viewBox="0 0 600 544"><defs><style>.cls-1{fill:#ce0e2d;}.cls-2,.cls-8{opacity:0.07;}.cls-3{fill:url(#linear-gradient);}.cls-4{fill:url(#linear-gradient-2);}.cls-5{fill:url(#linear-gradient-3);}.cls-6{fill:url(#linear-gradient-4);}.cls-7{fill:url(#linear-gradient-5);}.cls-9{fill:#fff;}</style><linearGradient id="linear-gradient" x1="24.51" y1="292.83" x2="258.55" y2="292.83" gradientUnits="userSpaceOnUse"><stop offset="0.73"/><stop offset="1" stop-opacity="0"/></linearGradient><linearGradient id="linear-gradient-2" x1="252.42" y1="215.16" x2="440.47" y2="215.16" xlink:href="#linear-gradient"/><linearGradient id="linear-gradient-3" x1="344.69" y1="129.92" x2="501" y2="129.92" xlink:href="#linear-gradient"/><linearGradient id="linear-gradient-4" x1="260.88" y1="65.54" x2="380.17" y2="65.54" xlink:href="#linear-gradient"/><linearGradient id="linear-gradient-5" x1="138.24" y1="41.01" x2="233" y2="41.01" xlink:href="#linear-gradient"/></defs><rect class="cls-1" y="0.03" width="600" height="544"/><g class="cls-2"><ellipse class="cls-3" cx="141.53" cy="292.83" rx="117.02" ry="54.17"/><ellipse class="cls-4" cx="346.45" cy="215.16" rx="94.03" ry="43.52"/><ellipse class="cls-5" cx="422.84" cy="129.92" rx="78.16" ry="36.18"/><ellipse class="cls-6" cx="320.53" cy="65.54" rx="59.65" ry="27.61"/><ellipse class="cls-7" cx="185.62" cy="41.01" rx="47.38" ry="21.93"/></g><path class="cls-8" d="M488.92,416.56a5.33,5.33,0,0,1,6,4.51,5.53,5.53,0,0,1,0,1.52v57c-4.31.28-6.62.28-10.33.28-69.67,0-112.39-39-112.39-81.41,0-52.49,52.46-82,110.7-82a246.15,246.15,0,0,1,57,6.6V282.93a237.6,237.6,0,0,0-56.76-6c-94.08,0-158.3,54.79-158.3,121.59,0,78,75.12,120.45,158.59,120.45a260.35,260.35,0,0,0,56.19-4.89V422.57a5.31,5.31,0,0,1,4.51-6,4.84,4.84,0,0,1,1.52,0H561.5V384.73H467.71v31.83Z"/><path class="cls-9" d="M246.28,406.42a21.14,21.14,0,0,1-1.53,8.4,13.73,13.73,0,0,1-4.3,5.63L246.3,425l-3.84,3.47-7.26-5.74a15,15,0,0,1-3.07.31,13.69,13.69,0,0,1-7.38-2,13.33,13.33,0,0,1-5-5.78A20.19,20.19,0,0,1,218,406.6v-1.92a20.9,20.9,0,0,1,1.76-8.81,13.29,13.29,0,0,1,5-5.85,13.55,13.55,0,0,1,7.37-2,13.77,13.77,0,0,1,7.44,2,13.1,13.1,0,0,1,5,5.76,20.69,20.69,0,0,1,1.78,8.76Zm-5.95-1.79q0-5.76-2.16-8.74a7.09,7.09,0,0,0-6.09-3,7,7,0,0,0-6,3c-1.45,2-2.18,4.84-2.21,8.49v2c0,3.68.72,6.57,2.16,8.64a7.58,7.58,0,0,0,12.17.12q2.11-3,2.12-8.76Z"/><path class="cls-9" d="M260,388.46l9.85,26.16,9.82-26.16h7.66v34.13h-5.91V411.34l.59-15-10.08,26.3h-4.24l-10.05-26.28.58,15v11.25H252.3V388.46Z"/><path class="cls-9" d="M320.37,411.48a12.37,12.37,0,0,1-4,8.52c-2.35,2-5.46,3.06-9.36,3.06a13.31,13.31,0,0,1-7.18-1.94,12.67,12.67,0,0,1-4.79-5.49,19.86,19.86,0,0,1-1.76-8.28v-3.18a20,20,0,0,1,1.71-8.51,12.82,12.82,0,0,1,4.91-5.67,13.69,13.69,0,0,1,7.4-2,13.19,13.19,0,0,1,9.09,3.06,12.8,12.8,0,0,1,4,8.66h-5.91a8.49,8.49,0,0,0-2.14-5.31,7.13,7.13,0,0,0-5.05-1.63,7,7,0,0,0-5.95,2.83q-2.07,2.83-2.12,8.29v3q0,5.54,2,8.45a6.57,6.57,0,0,0,5.8,2.9,7.64,7.64,0,0,0,5.25-1.57q1.77-1.56,2.23-5.22Z"/><path class="cls-9" d="M343.5,413.8a4.13,4.13,0,0,0-1.58-3.47,19.24,19.24,0,0,0-5.71-2.46,27.33,27.33,0,0,1-6.56-2.77q-4.66-2.93-4.67-7.64a8.31,8.31,0,0,1,3.37-6.79,13.56,13.56,0,0,1,8.73-2.68,14.69,14.69,0,0,1,6.35,1.32,10.4,10.4,0,0,1,4.38,3.73,9.54,9.54,0,0,1,1.6,5.38H343.5a5.34,5.34,0,0,0-1.68-4.18,6.88,6.88,0,0,0-4.79-1.51,7.2,7.2,0,0,0-4.51,1.24,4.14,4.14,0,0,0-1.61,3.47,3.75,3.75,0,0,0,1.74,3.13,20,20,0,0,0,5.72,2.44,26,26,0,0,1,6.4,2.69,10.12,10.12,0,0,1,3.53,3.47,9,9,0,0,1,1.13,4.58,8.12,8.12,0,0,1-3.27,6.79q-3.27,2.52-8.87,2.52a16.74,16.74,0,0,1-6.81-1.37,11.51,11.51,0,0,1-4.83-3.79,9.42,9.42,0,0,1-1.72-5.63h5.93a5.52,5.52,0,0,0,1.92,4.5,8.38,8.38,0,0,0,5.51,1.6,7.29,7.29,0,0,0,4.65-1.26A4,4,0,0,0,343.5,413.8Z"/><path class="cls-9" d="M381.87,406.42a20.91,20.91,0,0,1-1.74,8.8,13.12,13.12,0,0,1-4.95,5.81,14.54,14.54,0,0,1-14.82,0,13.33,13.33,0,0,1-5-5.78,20.34,20.34,0,0,1-1.8-8.65v-1.92a20.74,20.74,0,0,1,1.77-8.81,13.29,13.29,0,0,1,5-5.85,14.55,14.55,0,0,1,14.79,0,13.23,13.23,0,0,1,5,5.76,20.84,20.84,0,0,1,1.78,8.76Zm-5.93-1.79q0-5.67-2.15-8.69a7.57,7.57,0,0,0-12.09,0c-1.45,2-2.18,4.84-2.22,8.52v2c0,3.75.73,6.64,2.2,8.69a7.59,7.59,0,0,0,12.14.07q2.12-3,2.12-8.76Z"/><path class="cls-9" d="M366.85,319.86v13.42a13.43,13.43,0,0,1-13.42,13.42H246.07a13.43,13.43,0,0,1-13.42-13.42V319.86a40.14,40.14,0,0,1,33.58-39.57v24.08a16.77,16.77,0,1,0,9.58,0V279.93a32.91,32.91,0,0,1,6.77,1.56,51.92,51.92,0,0,0,34.39,0c.66-.24,1.32-.36,2-.57v13.54a24,24,0,0,0-19.17,23.48v13.12a4.78,4.78,0,0,0,4.13,4.77l9.35,1.25a2.42,2.42,0,0,0,2.81-1.88l.93-4.71a2.43,2.43,0,0,0-1.89-2.81l-5.78-1.17v-8c0-20.07,28.76-19.38,28.76-.57v8.54l-5.78,1.17a2.37,2.37,0,0,0-1.89,2.81l.93,4.71a2.38,2.38,0,0,0,2.82,1.88l9.64-1.91a4.81,4.81,0,0,0,3.87-4.71V317.94a24,24,0,0,0-19.18-23.48V279.78A40.2,40.2,0,0,1,366.85,319.86ZM261.4,231.67A38.35,38.35,0,1,1,299.75,270,38.34,38.34,0,0,1,261.4,231.67ZM271,313.15a7.19,7.19,0,1,1-7.19,7.19A7.17,7.17,0,0,1,271,313.15Z"/><path class="cls-9" d="M236.77,148.59l-10.37,7.28A60.56,60.56,0,0,1,212.52,163v7.86H171.67V163a60.23,60.23,0,0,1-13.89-7.12l-10.36-7.27a10.21,10.21,0,1,1,11.74-16.7l10.37,7.25a39.46,39.46,0,0,0,45.13,0L225,131.85a10.22,10.22,0,0,1,11.74,16.74ZM186,211.7A10.21,10.21,0,1,1,169.63,224l-12.26-16.34a10.24,10.24,0,0,1,.21-12.51l11.72-14.65L185,193.52l-6.54,8.17Zm-14.3-93.95a20.43,20.43,0,1,1,20.42,20.43A20.42,20.42,0,0,1,171.67,117.75Zm54.94,77.35a10.24,10.24,0,0,1,.2,12.51L214.56,224a10.21,10.21,0,0,1-16.34-12.25l7.5-10-6.53-8.17,15.7-13.07Z"/><path class="cls-9" d="M454,129.12,428.61,154.5V226a8.58,8.58,0,0,1-8.58,8.58h-4.29a8.58,8.58,0,0,1-8.58-8.58V196h-4.29v30a8.58,8.58,0,0,1-8.58,8.58H390a8.59,8.59,0,0,1-8.59-8.58V154.5L356,129.12A8.58,8.58,0,0,1,368.17,117l23.23,23.23h27.22L441.85,117A8.58,8.58,0,0,1,454,129.12ZM405,97.31a19.31,19.31,0,1,1-19.3,19.31A19.31,19.31,0,0,1,405,97.31Z"/></svg>