<svg id="Layer_1" data-name="Layer 1" xmlns="http://www.w3.org/2000/svg" xmlns:xlink="http://www.w3.org/1999/xlink" viewBox="0 0 600 544"><defs><style>.cls-1{fill:#ce0e2d;}.cls-2,.cls-8{opacity:0.07;}.cls-3{fill:url(#linear-gradient);}.cls-4{fill:url(#linear-gradient-2);}.cls-5{fill:url(#linear-gradient-3);}.cls-6{fill:url(#linear-gradient-4);}.cls-7{fill:url(#linear-gradient-5);}.cls-9{fill:#fff;}</style><linearGradient id="linear-gradient" x1="24.51" y1="292.83" x2="258.55" y2="292.83" gradientUnits="userSpaceOnUse"><stop offset="0.73"/><stop offset="1" stop-opacity="0"/></linearGradient><linearGradient id="linear-gradient-2" x1="252.42" y1="215.16" x2="440.47" y2="215.16" xlink:href="#linear-gradient"/><linearGradient id="linear-gradient-3" x1="344.69" y1="129.92" x2="501" y2="129.92" xlink:href="#linear-gradient"/><linearGradient id="linear-gradient-4" x1="260.88" y1="65.54" x2="380.17" y2="65.54" xlink:href="#linear-gradient"/><linearGradient id="linear-gradient-5" x1="138.24" y1="41.01" x2="233" y2="41.01" xlink:href="#linear-gradient"/></defs><rect class="cls-1" y="0.03" width="600" height="544"/><g class="cls-2"><ellipse class="cls-3" cx="141.53" cy="292.83" rx="117.02" ry="54.17"/><ellipse class="cls-4" cx="346.45" cy="215.16" rx="94.03" ry="43.52"/><ellipse class="cls-5" cx="422.84" cy="129.92" rx="78.16" ry="36.18"/><ellipse class="cls-6" cx="320.53" cy="65.54" rx="59.65" ry="27.61"/><ellipse class="cls-7" cx="185.62" cy="41.01" rx="47.38" ry="21.93"/></g><path class="cls-8" d="M488.92,416.56a5.33,5.33,0,0,1,6,4.51,5.53,5.53,0,0,1,0,1.52v57c-4.31.28-6.62.28-10.33.28-69.67,0-112.39-39-112.39-81.41,0-52.49,52.46-82,110.7-82a246.15,246.15,0,0,1,57,6.6V282.93a237.6,237.6,0,0,0-56.76-6c-94.08,0-158.3,54.79-158.3,121.59,0,78,75.12,120.45,158.59,120.45a260.35,260.35,0,0,0,56.19-4.89V422.57a5.31,5.31,0,0,1,4.51-6,4.84,4.84,0,0,1,1.52,0H561.5V384.73H467.71v31.83Z"/><path class="cls-9" d="M69.61,409.93v12.66H63.68V388.46H76.73c3.82,0,6.84,1,9.09,3a10,10,0,0,1,3.36,7.89,9.7,9.7,0,0,1-3.29,7.81q-3.3,2.79-9.23,2.79Zm0-4.78h7.12a7,7,0,0,0,4.83-1.49,5.46,5.46,0,0,0,1.67-4.3,5.93,5.93,0,0,0-1.69-4.42,6.51,6.51,0,0,0-4.64-1.7H69.61Z"/><path class="cls-9" d="M106.9,409.46h-6.61v13.13H94.36V388.46h12c3.94,0,7,.89,9.12,2.65s3.21,4.33,3.21,7.67a9.62,9.62,0,0,1-1.65,5.74,10.57,10.57,0,0,1-4.61,3.55l7.66,14.21v.31h-6.35Zm-6.61-4.78h6.09a6.76,6.76,0,0,0,4.69-1.51,5.27,5.27,0,0,0,1.69-4.14,5.6,5.6,0,0,0-1.56-4.24,6.62,6.62,0,0,0-4.65-1.55h-6.26Z"/><path class="cls-9" d="M144.26,407.35h-14v10.5h16.39v4.74H124.31V388.46h22.15v4.78H130.24v9.43h14Z"/><path class="cls-9" d="M159.14,388.46,169,414.62l9.82-26.16h7.67v34.13h-5.91V411.34l.59-15-10.08,26.3h-4.24l-10.06-26.28.59,15v11.25h-5.91V388.46Z"/><path class="cls-9" d="M199.73,422.59h-5.9V388.46h5.9Z"/><path class="cls-9" d="M232,388.46v22.81a11.09,11.09,0,0,1-3.48,8.61,13.21,13.21,0,0,1-9.27,3.18q-5.85,0-9.3-3.13t-3.45-8.69V388.46h5.91v22.83a7.26,7.26,0,0,0,1.74,5.23,6.74,6.74,0,0,0,5.1,1.8q6.86,0,6.85-7.22V388.46Z"/><path class="cls-9" d="M246,388.46l9.84,26.16,9.82-26.16h7.67v34.13h-5.91V411.34l.59-15-10.08,26.3h-4.24l-10.06-26.28.59,15v11.25h-5.91V388.46Z"/><path class="cls-9" d="M319.52,406.42a20.91,20.91,0,0,1-1.73,8.8,13.14,13.14,0,0,1-5,5.81A14.52,14.52,0,0,1,298,421a13.35,13.35,0,0,1-5-5.78,20.34,20.34,0,0,1-1.79-8.65v-1.92a20.74,20.74,0,0,1,1.77-8.81,13.27,13.27,0,0,1,5-5.85,14.55,14.55,0,0,1,14.79,0,13,13,0,0,1,5,5.76,20.69,20.69,0,0,1,1.78,8.76Zm-5.93-1.79q0-5.67-2.14-8.69a7.57,7.57,0,0,0-12.09,0q-2.17,3-2.22,8.52v2c0,3.75.73,6.64,2.19,8.69a7,7,0,0,0,6.08,3.07,7,7,0,0,0,6.06-3c1.42-2,2.12-4.92,2.12-8.76Z"/><path class="cls-9" d="M352.5,422.59h-5.93l-15.21-24.21v24.21h-5.93V388.46h5.93l15.26,24.31V388.46h5.88Z"/><path class="cls-9" d="M365.44,417.85h15.49v4.74H359.51V388.46h5.93Z"/><path class="cls-9" d="M390.07,404.63l7.85-16.17h6.56L393.05,410v12.57h-6V410l-11.46-21.56h6.59Z"/><path class="cls-9" d="M426.07,409.93v12.66h-5.93V388.46H433.2q5.71,0,9.08,3a10,10,0,0,1,3.36,7.89,9.7,9.7,0,0,1-3.29,7.81q-3.3,2.79-9.22,2.79Zm0-4.78h7.13a7,7,0,0,0,4.82-1.49,5.46,5.46,0,0,0,1.67-4.3,5.89,5.89,0,0,0-1.69-4.42,6.49,6.49,0,0,0-4.64-1.7h-7.29Z"/><path class="cls-9" d="M456.75,417.85h15.49v4.74H450.82V388.46h5.93Z"/><path class="cls-9" d="M496.34,414.64H483.12l-2.77,7.95h-6.16l12.89-34.13h5.32l12.91,34.13h-6.18Zm-11.56-4.78h9.89l-4.94-14.16Z"/><path class="cls-9" d="M536.25,422.59h-5.93l-15.21-24.21v24.21h-5.93V388.46h5.93l15.26,24.31V388.46h5.88Z"/><path class="cls-9" d="M168.56,466.31A35.61,35.61,0,0,1,170,456a28,28,0,0,1,4.26-8.7,17,17,0,0,1,5.95-5.38l1.13,3.33a17.43,17.43,0,0,0-5.36,7.65,34.35,34.35,0,0,0-2.23,11.78l0,2a37.14,37.14,0,0,0,2,12.67,18.63,18.63,0,0,0,5.61,8.48L180.23,491a17,17,0,0,1-6-5.4,28.24,28.24,0,0,1-4.27-8.7A37.18,37.18,0,0,1,168.56,466.31Z"/><path class="cls-9" d="M203.6,471.4a4.13,4.13,0,0,0-1.58-3.47,19.24,19.24,0,0,0-5.71-2.46,27.51,27.51,0,0,1-6.56-2.77q-4.67-2.93-4.66-7.64a8.3,8.3,0,0,1,3.36-6.79,13.56,13.56,0,0,1,8.73-2.68,14.69,14.69,0,0,1,6.35,1.32,10.4,10.4,0,0,1,4.38,3.73,9.54,9.54,0,0,1,1.6,5.38H203.6a5.37,5.37,0,0,0-1.67-4.18,6.93,6.93,0,0,0-4.8-1.51,7.22,7.22,0,0,0-4.51,1.24A4.13,4.13,0,0,0,191,455a3.73,3.73,0,0,0,1.73,3.13,20.18,20.18,0,0,0,5.72,2.44,25.84,25.84,0,0,1,6.4,2.69,10.15,10.15,0,0,1,3.54,3.47,9,9,0,0,1,1.12,4.58,8.12,8.12,0,0,1-3.27,6.79c-2.18,1.68-5.13,2.52-8.87,2.52a16.74,16.74,0,0,1-6.81-1.37,11.51,11.51,0,0,1-4.83-3.79,9.48,9.48,0,0,1-1.72-5.62H190a5.54,5.54,0,0,0,1.92,4.5,8.44,8.44,0,0,0,5.51,1.59,7.29,7.29,0,0,0,4.65-1.26A4,4,0,0,0,203.6,471.4Z"/><path class="cls-9" d="M239.7,446.06v22.81a11.06,11.06,0,0,1-3.49,8.61,13.2,13.2,0,0,1-9.26,3.18q-5.87,0-9.31-3.13t-3.44-8.69V446.06h5.9v22.83a7.26,7.26,0,0,0,1.74,5.23,6.77,6.77,0,0,0,5.11,1.8q6.84,0,6.84-7.22V446.06Z"/><path class="cls-9" d="M253.71,446.06l9.84,26.16,9.83-26.16H281v34.13h-5.91V468.94l.59-15.05-10.08,26.3H261.4l-10.06-26.28.59,15v11.25H246V446.06Z"/><path class="cls-9" d="M295.73,446.06l9.85,26.16,9.82-26.16h7.66v34.13h-5.9V468.94l.58-15.05-10.08,26.3h-4.24l-10.05-26.28.58,15v11.25h-5.9V446.06Z"/><path class="cls-9" d="M349.59,472.24H336.38l-2.77,7.95h-6.16l12.89-34.13h5.32l12.91,34.13h-6.19ZM338,467.46h9.89L343,453.3Z"/><path class="cls-9" d="M375,467.06h-6.61v13.13h-5.93V446.06h12c3.94,0,7,.89,9.11,2.65s3.22,4.33,3.22,7.67a9.62,9.62,0,0,1-1.66,5.74,10.49,10.49,0,0,1-4.6,3.55l7.66,14.21v.31h-6.35Zm-6.61-4.78h6.09a6.78,6.78,0,0,0,4.69-1.51,5.3,5.3,0,0,0,1.69-4.14,5.6,5.6,0,0,0-1.56-4.24,6.66,6.66,0,0,0-4.65-1.55h-6.26Z"/><path class="cls-9" d="M402.4,462.23l7.85-16.17h6.56l-11.43,21.57v12.56h-6V467.63L388,446.06h6.59Z"/><path class="cls-9" d="M431.41,466.69a35,35,0,0,1-1.43,10,28.28,28.28,0,0,1-4.33,8.81,17,17,0,0,1-6.07,5.5l-1.13-3.16a18.07,18.07,0,0,0,5.57-8.31,36.87,36.87,0,0,0,2.05-12.77v-.53a37.41,37.41,0,0,0-1.78-11.88,21,21,0,0,0-5.11-8.59l-.73-.65,1.13-3.19a16.77,16.77,0,0,1,5.81,5.16,27.9,27.9,0,0,1,4.31,8.28,34.38,34.38,0,0,1,1.69,9.46Z"/><path class="cls-9" d="M415.13,195.15l-79.55-11.56L300,111.5l-35.58,72.09-79.55,11.56,57.56,56.11L228.84,330.5,300,293.09l71.16,37.41-13.59-79.24ZM300,168.78a27,27,0,1,1-27,27A27,27,0,0,1,300,168.78Zm-15.21,89.55a5.07,5.07,0,1,1-5.07-5.07A5.06,5.06,0,0,1,284.79,258.33Zm62.52,9.13a9.47,9.47,0,0,1-9.46,9.46h-75.7a9.47,9.47,0,0,1-9.46-9.46V258a28.31,28.31,0,0,1,23.68-27.9v17a11.82,11.82,0,1,0,6.76,0V229.84a23.23,23.23,0,0,1,4.77,1.1,36.52,36.52,0,0,0,24.24,0c.47-.17.93-.26,1.4-.4v9.54A17,17,0,0,0,300,256.64v9.25a3.38,3.38,0,0,0,2.92,3.36l6.59.89a1.71,1.71,0,0,0,2-1.33l.66-3.32a1.71,1.71,0,0,0-1.33-2l-4.08-.83V257c0-14.15,20.28-13.66,20.28-.4v6l-4.08.83a1.66,1.66,0,0,0-1.33,2l.65,3.32a1.68,1.68,0,0,0,2,1.33l6.8-1.36a3.38,3.38,0,0,0,2.72-3.31v-8.81a16.92,16.92,0,0,0-13.51-16.56V229.73a28.35,28.35,0,0,1,27,28.26Z"/></svg>