<svg id="Layer_1" data-name="Layer 1" xmlns="http://www.w3.org/2000/svg" viewBox="0 0 600 544"><defs><style>.cls-1{fill:#ce0e2d;}.cls-2{opacity:0.07;}.cls-3{fill:#fff;}</style></defs><rect class="cls-1" y="0.03" width="600" height="544"/><path class="cls-2" d="M341.24,313.82c0-8.68.13-17.37-.06-26.05-.11-4.43,1.66-6.43,6-7.29,16.34-3.22,31.65-9,44.76-19.64,14.82-12,22.8-27.94,25-46.61,3.21-27.19-3.16-51.68-23.72-70.73-20.39-18.89-45.5-24.18-72.53-22.34-50.17,3.43-87.54,44.19-90.69,98.23-2.12,36.35,8,68.36,34.09,94.38,18.7,18.64,41.81,28.75,67.63,33.06,8.87,1.48,8.91,1.39,8.91,10.65V517c0,9.52,0,9.65-9.22,8.44-55.94-7.41-105.27-29.6-147.27-67.27-49.87-44.73-80.08-100.44-88.75-166.92-9.24-70.81,5.78-135.88,51.72-191.79C184.52,54,233.26,28,291.58,20.28c39.91-5.3,79-1.84,115.68,15.43,63.6,29.94,97.21,80.51,99.77,151,1.31,36.18-7.43,69.7-29.7,98.79-23.62,30.86-55.73,48.32-93.15,56.35-12,2.57-24.33,3.29-36.52,4.8-4.63.57-6.57-1.53-6.48-6.24C341.37,331.55,341.24,322.69,341.24,313.82Z"/><path class="cls-3" d="M273.9,234.14a2.63,2.63,0,0,0,2.46-1.42,9.72,9.72,0,0,0,.81-4.45v-7a10.1,10.1,0,0,0-.79-4.53,2.66,2.66,0,0,0-2.52-1.5,2.58,2.58,0,0,0-2.44,1.39,9.46,9.46,0,0,0-.82,4.21v7.19a10.09,10.09,0,0,0,.79,4.61A2.66,2.66,0,0,0,273.9,234.14Z"/><path class="cls-3" d="M364.53,177.08,330.38,142.9a8.38,8.38,0,0,0-5.93-2.45h-2.13V185.1H367V183A8.34,8.34,0,0,0,364.53,177.08Z"/><path class="cls-3" d="M311.16,187.89V140.45H241.4a8.35,8.35,0,0,0-8.37,8.37V310.67A8.35,8.35,0,0,0,241.4,319H358.6a8.35,8.35,0,0,0,8.37-8.37V196.26H319.53A8.4,8.4,0,0,1,311.16,187.89Zm-23.6,27,12.35-4.27h.6v28.14H294V218l-6.42,1.88Zm-26.28,17.9h-2.86v6h-6.51v-6H241l-.39-4,11.27-18.13v-.06h6.51v17.14h2.86Zm2.78-10.67q0-5.7,2.57-8.8a10,10,0,0,1,14.48,0q2.56,3.12,2.57,8.8v5.12q0,5.7-2.56,8.79a10,10,0,0,1-14.49,0c-1.71-2.07-2.57-5-2.57-8.77ZM351.5,297h-51v-7.29h51Zm0-17.35h-67v-7.3h67Zm0-17.36h-85V255h85Zm0-45.08a12.48,12.48,0,0,0-4.2-6.26l1.24-3.21a12.51,12.51,0,0,1,5,3.93,21.82,21.82,0,0,1,3.67,6.9,27.07,27.07,0,0,1,1.38,8.46v.85a27.53,27.53,0,0,1-1.33,8.62,22.07,22.07,0,0,1-3.68,7,12.31,12.31,0,0,1-5.07,4l-1.24-3.21a12.72,12.72,0,0,0,4.15-6.19,29.82,29.82,0,0,0,1.53-9.6V227.3A30.79,30.79,0,0,0,351.54,217.21Zm-28.17-6.57h6.79v12.41l2.36-3.58,6.06-8.83H347l-9.51,12.45L347,238.78h-8l-6-10.48-2.78,3.06v7.42h-6.79ZM316.27,238a12.65,12.65,0,0,0,4.2,6.26l-1.23,3.21a12.22,12.22,0,0,1-4.92-4,20.75,20.75,0,0,1-3.47-6.85,29.83,29.83,0,0,1-1.26-8.46v-.87a29.48,29.48,0,0,1,1.26-8.78,21.18,21.18,0,0,1,3.47-6.88,12.27,12.27,0,0,1,4.92-3.94l1.23,3.21a12.68,12.68,0,0,0-4.18,6.21,30.16,30.16,0,0,0-1.5,9.91v.85A31.06,31.06,0,0,0,316.27,238Z"/><polygon class="cls-3" points="246.84 227.78 251.91 227.78 251.91 219.12 251.5 219.78 246.84 227.78"/><path class="cls-3" d="M99.67,412.87a4.14,4.14,0,0,0-1.58-3.47,19.24,19.24,0,0,0-5.71-2.46,27.36,27.36,0,0,1-6.56-2.76q-4.66-2.93-4.67-7.64a8.3,8.3,0,0,1,3.37-6.8,13.61,13.61,0,0,1,8.73-2.67,14.83,14.83,0,0,1,6.35,1.31,10.42,10.42,0,0,1,4.38,3.74,9.61,9.61,0,0,1,1.59,5.38h-5.9A5.36,5.36,0,0,0,98,393.31a6.93,6.93,0,0,0-4.79-1.51,7.2,7.2,0,0,0-4.51,1.25,4.12,4.12,0,0,0-1.61,3.46,3.73,3.73,0,0,0,1.74,3.13,19.77,19.77,0,0,0,5.72,2.44,26.29,26.29,0,0,1,6.39,2.7,10.13,10.13,0,0,1,3.54,3.46,9.08,9.08,0,0,1,1.13,4.59,8.12,8.12,0,0,1-3.27,6.78q-3.27,2.52-8.87,2.52a16.74,16.74,0,0,1-6.81-1.37A11.49,11.49,0,0,1,81.82,417a9.44,9.44,0,0,1-1.72-5.63H86a5.52,5.52,0,0,0,1.92,4.5,8.44,8.44,0,0,0,5.51,1.59,7.29,7.29,0,0,0,4.65-1.25A4,4,0,0,0,99.67,412.87Z"/><path class="cls-3" d="M135.76,387.54v22.8a11.1,11.1,0,0,1-3.48,8.62,13.25,13.25,0,0,1-9.27,3.17c-3.9,0-7-1-9.3-3.13s-3.45-5-3.45-8.68V387.54h5.91v22.83a7.26,7.26,0,0,0,1.73,5.22A6.75,6.75,0,0,0,123,417.4q6.84,0,6.85-7.22V387.54Z"/><path class="cls-3" d="M149.78,387.54l9.84,26.15,9.82-26.15h7.67v34.12H171.2V410.41l.59-15-10.08,26.29h-4.25l-10.05-26.27.59,15v11.25h-5.91V387.54Z"/><path class="cls-3" d="M191.8,387.54l9.84,26.15,9.82-26.15h7.67v34.12h-5.91V410.41l.59-15-10.08,26.29h-4.24l-10.06-26.27.59,15v11.25h-5.91V387.54Z"/><path class="cls-3" d="M245.66,413.72H232.44l-2.76,7.94h-6.17l12.89-34.12h5.32l12.92,34.12h-6.19Zm-11.55-4.78H244l-4.95-14.16Z"/><path class="cls-3" d="M271,408.54h-6.61v13.12H258.5V387.54h12q5.91,0,9.12,2.65c2.14,1.77,3.21,4.32,3.21,7.67a9.61,9.61,0,0,1-1.65,5.73,10.53,10.53,0,0,1-4.61,3.56l7.67,14.21v.3h-6.35Zm-6.61-4.78h6.1a6.74,6.74,0,0,0,4.68-1.52,5.23,5.23,0,0,0,1.69-4.13,5.6,5.6,0,0,0-1.56-4.24,6.62,6.62,0,0,0-4.65-1.55h-6.26Z"/><path class="cls-3" d="M298.46,403.71l7.86-16.17h6.56L301.44,409.1v12.56h-5.95V409.1L284,387.54h6.58Z"/><path class="cls-3" d="M328.54,421.66V387.54h11.69q5.79,0,8.81,2.32c2,1.54,3,3.85,3,6.91A7.41,7.41,0,0,1,350.8,401a8.17,8.17,0,0,1-3.7,2.91,7.57,7.57,0,0,1,4.28,2.82,8.26,8.26,0,0,1,1.51,5,9.06,9.06,0,0,1-3.09,7.38q-3.07,2.58-8.82,2.58Zm5.92-19.76h5.82a6.69,6.69,0,0,0,4.32-1.25,4.3,4.3,0,0,0,1.56-3.55,4.36,4.36,0,0,0-1.44-3.66,7.29,7.29,0,0,0-4.49-1.12h-5.77Zm0,4.36v10.67h6.59a6.39,6.39,0,0,0,4.36-1.38A4.87,4.87,0,0,0,347,411.7q0-5.32-5.44-5.44Z"/><path class="cls-3" d="M386.05,405.49a21,21,0,0,1-1.73,8.8,13.14,13.14,0,0,1-5,5.81,14.52,14.52,0,0,1-14.81,0,13.26,13.26,0,0,1-5-5.77,20.22,20.22,0,0,1-1.79-8.65v-1.92a20.79,20.79,0,0,1,1.77-8.82,13.3,13.3,0,0,1,5-5.84,13.51,13.51,0,0,1,7.39-2,13.76,13.76,0,0,1,7.4,2,13.13,13.13,0,0,1,5,5.77,20.64,20.64,0,0,1,1.78,8.75Zm-5.93-1.78q0-5.67-2.14-8.7a7.58,7.58,0,0,0-12.1,0q-2.16,3-2.21,8.52v2q0,5.63,2.19,8.7a7.07,7.07,0,0,0,6.08,3.07,7,7,0,0,0,6.06-3c1.41-2,2.12-4.93,2.12-8.77Z"/><path class="cls-3" d="M419.19,405.49a21,21,0,0,1-1.73,8.8,13.14,13.14,0,0,1-5,5.81,14.52,14.52,0,0,1-14.81,0,13.26,13.26,0,0,1-5-5.77,20.22,20.22,0,0,1-1.79-8.65v-1.92a20.79,20.79,0,0,1,1.77-8.82,13.3,13.3,0,0,1,5-5.84,13.52,13.52,0,0,1,7.4-2,13.75,13.75,0,0,1,7.39,2,13.13,13.13,0,0,1,5,5.77,20.64,20.64,0,0,1,1.78,8.75Zm-5.93-1.78q0-5.67-2.14-8.7a7.58,7.58,0,0,0-12.1,0q-2.16,3-2.21,8.52v2q0,5.63,2.19,8.7a7.07,7.07,0,0,0,6.08,3.07,7,7,0,0,0,6.06-3c1.41-2,2.12-4.93,2.12-8.77Z"/><path class="cls-3" d="M434.89,406.92,431,411v10.64H425.1V387.54H431v16l3.28-4.06,10-11.95h7.17l-12.67,15.11,13.4,19h-7Z"/><path class="cls-3" d="M461.29,416.93h15.49v4.73H455.36V387.54h5.93Z"/><path class="cls-3" d="M501.27,406.43h-14v10.5h16.39v4.73H481.32V387.54h22.15v4.78H487.25v9.42h14Z"/><path class="cls-3" d="M533.59,392.32H523v29.34h-5.88V392.32H506.52v-4.78h27.07Z"/></svg>