<svg id="Layer_1" data-name="Layer 1" xmlns="http://www.w3.org/2000/svg" viewBox="0 0 600 544"><defs><style>.cls-1{fill:#ce0e2d;}.cls-2{opacity:0.07;}.cls-3{fill:#fff;}</style></defs><rect class="cls-1" y="0.03" width="600" height="544"/><g class="cls-2"><path d="M398.35,293.7a2.52,2.52,0,0,0-2.27,2.34c-9.37,93.48-33.21,161.65-74.29,199.1a2.92,2.92,0,0,0-.18,4.13l.05.05a3.24,3.24,0,0,0,.86.66,122.77,122.77,0,0,0,36.59,5.77c82.54,0,152.22-89.17,176.19-209.43a2.51,2.51,0,0,0-2.25-2.67h-45Z"/><path d="M240.84,506c26.13,0,107.91,0,135.21-177.6.5-3.32-3.48-4.61-4.41-1.43-12.8,43.62-38.71,114.51-71.75,114.51-23.72,0-51.11-36.51-80-145.89a2.37,2.37,0,0,0-2.2-1.92l-150.65,0a2.68,2.68,0,0,0-2.35,2.52v.2a.89.89,0,0,0,0,.23v.4C89.05,418.37,158.71,506,240.84,506Z"/><path d="M223.83,215.6c-.51,3.32,3.5,4.61,4.43,1.43C241.12,173.44,267,102.52,300,102.52c23.72,0,51.11,36.51,80,145.89a2.33,2.33,0,0,0,2.17,1.92H533a2.65,2.65,0,0,0,2.32-2.94V247C510.78,125.63,441.2,38,359.06,38,332.93,38,251.2,38,223.83,215.6Z"/><path d="M67,250.38H201.74a2.52,2.52,0,0,0,2.18-2.32c9.47-93.48,33.21-161.67,74.29-199.2a2.94,2.94,0,0,0,0-4.17h0a2.52,2.52,0,0,0-.85-.63,121.24,121.24,0,0,0-36.5-5.77c-82.51,0-152.19,89.14-176.16,209.4v.2A2.52,2.52,0,0,0,67,250.38Z"/></g><path class="cls-3" d="M146.05,366.93h15.49v4.73H140.12V337.54h5.93Z"/><path class="cls-3" d="M191.82,355.49a20.88,20.88,0,0,1-1.73,8.8,13.14,13.14,0,0,1-5,5.81,14.52,14.52,0,0,1-14.81,0,13.32,13.32,0,0,1-5-5.77,20.52,20.52,0,0,1-1.79-8.65v-1.92a20.79,20.79,0,0,1,1.77-8.82,13.36,13.36,0,0,1,5-5.84,13.55,13.55,0,0,1,7.4-2,13.75,13.75,0,0,1,7.39,2,13.13,13.13,0,0,1,5,5.77,20.64,20.64,0,0,1,1.78,8.75Zm-5.93-1.78q0-5.67-2.14-8.7a7.57,7.57,0,0,0-12.09,0q-2.17,3-2.22,8.52v2q0,5.63,2.19,8.7a7.07,7.07,0,0,0,6.08,3.07,7,7,0,0,0,6.06-3c1.42-2,2.12-4.93,2.12-8.77Z"/><path class="cls-3" d="M223.89,367.23a11.39,11.39,0,0,1-5.14,3.66,20.86,20.86,0,0,1-7.45,1.24,14.73,14.73,0,0,1-7.59-1.94,12.94,12.94,0,0,1-5.1-5.57,19.3,19.3,0,0,1-1.86-8.45V353.5q0-7.74,3.7-12.08t10.34-4.35c3.79,0,6.81.94,9,2.82a12.15,12.15,0,0,1,4,8.12h-5.81q-1-6.17-7.15-6.16a7,7,0,0,0-6.06,2.87q-2.07,2.86-2.14,8.42v2.62q0,5.52,2.33,8.58a7.7,7.7,0,0,0,6.48,3.06q4.55,0,6.47-2.07v-6.68h-7v-4.5h12.94Z"/><path class="cls-3" d="M236.66,371.66h-5.91V337.54h5.91Z"/><path class="cls-3" d="M271,371.66h-5.93l-15.21-24.21v24.21H244V337.54h5.93l15.26,24.3v-24.3H271Z"/><path class="cls-3" d="M295.91,359v12.65H290V337.54H303q5.71,0,9.08,3a10,10,0,0,1,3.36,7.88,9.69,9.69,0,0,1-3.29,7.81Q308.89,359,303,359Zm0-4.79H303a7,7,0,0,0,4.82-1.48,5.49,5.49,0,0,0,1.67-4.3,5.92,5.92,0,0,0-1.69-4.42,6.51,6.51,0,0,0-4.64-1.7h-7.29Z"/><path class="cls-3" d="M347.89,355.49a20.88,20.88,0,0,1-1.73,8.8,13.14,13.14,0,0,1-5,5.81,14.52,14.52,0,0,1-14.81,0,13.24,13.24,0,0,1-5-5.77,20.37,20.37,0,0,1-1.8-8.65v-1.92a20.79,20.79,0,0,1,1.77-8.82,13.36,13.36,0,0,1,5-5.84,13.55,13.55,0,0,1,7.4-2,13.75,13.75,0,0,1,7.39,2,13.13,13.13,0,0,1,5,5.77,20.49,20.49,0,0,1,1.78,8.75ZM342,353.71q0-5.67-2.14-8.7a7.57,7.57,0,0,0-12.09,0q-2.18,3-2.22,8.52v2q0,5.63,2.19,8.7a7.08,7.08,0,0,0,6.09,3.07,7,7,0,0,0,6-3c1.42-2,2.12-4.93,2.12-8.77Z"/><path class="cls-3" d="M366.34,358.54h-6.61v13.12H353.8V337.54h12q5.91,0,9.12,2.65c2.14,1.77,3.21,4.32,3.21,7.67a9.61,9.61,0,0,1-1.65,5.73,10.53,10.53,0,0,1-4.61,3.56l7.67,14.21v.3h-6.36Zm-6.61-4.78h6.09a6.77,6.77,0,0,0,4.69-1.52,5.23,5.23,0,0,0,1.69-4.13,5.6,5.6,0,0,0-1.56-4.24,6.62,6.62,0,0,0-4.65-1.55h-6.26Z"/><path class="cls-3" d="M407.24,342.32H396.6v29.34h-5.89V342.32H380.17v-4.78h27.07Z"/><path class="cls-3" d="M428,363.72H414.79L412,371.66h-6.16l12.89-34.12h5.32L437,371.66h-6.19Zm-11.55-4.78h9.89l-4.95-14.16Z"/><path class="cls-3" d="M446.78,366.93h15.49v4.73H440.85V337.54h5.93Z"/><path class="cls-3" d="M311.16,121V288H194a5.58,5.58,0,0,1-5.58-5.58V271.3a5.58,5.58,0,0,1,5.58-5.58h27.91V138.38a11.48,11.48,0,0,1,8.45-11.22l67-17.35C304.34,108,311.16,113.5,311.16,121Zm-22.32,77.72c0-6.17-3.75-11.17-8.37-11.17s-8.37,5-8.37,11.17,3.75,11.16,8.37,11.16S288.84,204.91,288.84,198.75ZM411.62,271.3v11.16A5.58,5.58,0,0,1,406,288H355.81V154.1H322.32V131.78h39.07A17,17,0,0,1,378.13,149V265.72H406A5.58,5.58,0,0,1,411.62,271.3Z"/></svg>