<svg id="Layer_1" data-name="Layer 1" xmlns="http://www.w3.org/2000/svg" viewBox="0 0 600 544"><defs><style>.cls-1{fill:#ce0e2d;}.cls-2{opacity:0.07;}.cls-3{fill:#fff;}</style></defs><rect class="cls-1" y="0.03" width="600" height="544"/><g class="cls-2"><path d="M398.35,293.7a2.52,2.52,0,0,0-2.27,2.34c-9.37,93.48-33.21,161.65-74.29,199.1a2.92,2.92,0,0,0-.18,4.13l.05.05a3.24,3.24,0,0,0,.86.66,122.77,122.77,0,0,0,36.59,5.77c82.54,0,152.22-89.17,176.19-209.43a2.51,2.51,0,0,0-2.25-2.67h-45Z"/><path d="M240.84,506c26.13,0,107.91,0,135.21-177.6.5-3.32-3.48-4.61-4.41-1.43-12.8,43.62-38.71,114.51-71.75,114.51-23.72,0-51.11-36.51-80-145.89a2.37,2.37,0,0,0-2.2-1.92l-150.65,0a2.68,2.68,0,0,0-2.35,2.52v.2a.89.89,0,0,0,0,.23v.4C89.05,418.37,158.71,506,240.84,506Z"/><path d="M223.83,215.6c-.51,3.32,3.5,4.61,4.43,1.43C241.12,173.44,267,102.52,300,102.52c23.72,0,51.11,36.51,80,145.89a2.33,2.33,0,0,0,2.17,1.92H533a2.65,2.65,0,0,0,2.32-2.94V247C510.78,125.63,441.2,38,359.06,38,332.93,38,251.2,38,223.83,215.6Z"/><path d="M67,250.38H201.74a2.52,2.52,0,0,0,2.18-2.32c9.47-93.48,33.21-161.67,74.29-199.2a2.94,2.94,0,0,0,0-4.17h0a2.52,2.52,0,0,0-.85-.63,121.24,121.24,0,0,0-36.5-5.77c-82.51,0-152.19,89.14-176.16,209.4v.2A2.52,2.52,0,0,0,67,250.38Z"/></g><path class="cls-3" d="M83.43,363.22l5.25-25.68h5.88l-7.88,34.12H81l-6.49-24.91-6.63,24.91h-5.7l-7.87-34.12H60.2l5.3,25.64L72,337.54h5Z"/><path class="cls-3" d="M118.84,356.43h-14v10.5h16.39v4.73H98.89V337.54H121v4.78H104.82v9.42h14Z"/><path class="cls-3" d="M126,371.66V337.54h11.69q5.79,0,8.81,2.32c2,1.54,3,3.85,3,6.91A7.41,7.41,0,0,1,148.3,351a8.17,8.17,0,0,1-3.7,2.91,7.57,7.57,0,0,1,4.28,2.82,8.26,8.26,0,0,1,1.51,5,9.06,9.06,0,0,1-3.09,7.38q-3.08,2.58-8.82,2.58ZM132,351.9h5.82a6.69,6.69,0,0,0,4.32-1.25,4.3,4.3,0,0,0,1.56-3.55,4.36,4.36,0,0,0-1.44-3.66,7.29,7.29,0,0,0-4.49-1.12H132Zm0,4.36v10.67h6.59a6.34,6.34,0,0,0,4.36-1.39,4.83,4.83,0,0,0,1.57-3.84q0-5.32-5.44-5.44Z"/><path class="cls-3" d="M174.2,359v12.65h-5.93V337.54h13c3.82,0,6.84,1,9.09,3a10,10,0,0,1,3.36,7.88,9.69,9.69,0,0,1-3.29,7.81q-3.3,2.81-9.23,2.8Zm0-4.79h7.12a7,7,0,0,0,4.83-1.48,5.49,5.49,0,0,0,1.67-4.3,5.92,5.92,0,0,0-1.69-4.42,6.51,6.51,0,0,0-4.64-1.7H174.2Z"/><path class="cls-3" d="M213.88,363.72H200.66l-2.77,7.94h-6.16l12.89-34.12h5.32l12.92,34.12h-6.19Zm-11.56-4.78h9.89l-4.94-14.16Z"/><path class="cls-3" d="M234.34,353.71l7.85-16.17h6.56L237.32,359.1v12.56h-6V359.1L219.9,337.54h6.59Z"/><path class="cls-3" d="M270.34,366.93h15.49v4.73H264.41V337.54h5.93Z"/><path class="cls-3" d="M316.11,355.49a20.88,20.88,0,0,1-1.73,8.8,13.14,13.14,0,0,1-5,5.81,14.52,14.52,0,0,1-14.81,0,13.32,13.32,0,0,1-5-5.77,20.37,20.37,0,0,1-1.79-8.65v-1.92a20.79,20.79,0,0,1,1.77-8.82,13.3,13.3,0,0,1,5-5.84,13.55,13.55,0,0,1,7.4-2,13.75,13.75,0,0,1,7.39,2,13.13,13.13,0,0,1,5,5.77,20.64,20.64,0,0,1,1.78,8.75Zm-5.93-1.78q0-5.67-2.14-8.7A7.57,7.57,0,0,0,296,345q-2.18,3-2.22,8.52v2q0,5.63,2.19,8.7a7.07,7.07,0,0,0,6.08,3.07,7,7,0,0,0,6.06-3c1.42-2,2.12-4.93,2.12-8.77Z"/><path class="cls-3" d="M348.18,367.23a11.39,11.39,0,0,1-5.14,3.66,20.86,20.86,0,0,1-7.45,1.24,14.73,14.73,0,0,1-7.59-1.94,12.94,12.94,0,0,1-5.1-5.57,19.3,19.3,0,0,1-1.86-8.45V353.5q0-7.74,3.7-12.08t10.33-4.35q5.7,0,9.05,2.82a12.15,12.15,0,0,1,4,8.12h-5.81q-1-6.17-7.15-6.16a7,7,0,0,0-6.06,2.87q-2.07,2.86-2.14,8.42v2.62q0,5.52,2.33,8.58a7.7,7.7,0,0,0,6.48,3.06q4.54,0,6.47-2.07v-6.68h-7v-4.5h12.94Z"/><path class="cls-3" d="M361,371.66H355V337.54H361Z"/><path class="cls-3" d="M395.31,371.66h-5.93l-15.21-24.21v24.21h-5.93V337.54h5.93l15.26,24.3v-24.3h5.88Z"/><path class="cls-3" d="M440.43,367.23a11.39,11.39,0,0,1-5.14,3.66,20.86,20.86,0,0,1-7.45,1.24,14.73,14.73,0,0,1-7.59-1.94,12.94,12.94,0,0,1-5.1-5.57,19.3,19.3,0,0,1-1.86-8.45V353.5q0-7.74,3.7-12.08t10.33-4.35q5.7,0,9.05,2.82a12.15,12.15,0,0,1,4,8.12h-5.81q-1-6.17-7.15-6.16a7,7,0,0,0-6.06,2.87q-2.07,2.86-2.14,8.42v2.62q0,5.52,2.33,8.58a7.7,7.7,0,0,0,6.48,3.06q4.54,0,6.47-2.07v-6.68h-7v-4.5h12.94Z"/><path class="cls-3" d="M471.9,337.54v22.8a11.1,11.1,0,0,1-3.48,8.62,13.25,13.25,0,0,1-9.27,3.17c-3.9,0-7-1-9.3-3.13s-3.45-5-3.45-8.68V337.54h5.91v22.83a7.26,7.26,0,0,0,1.73,5.22,6.79,6.79,0,0,0,5.11,1.81q6.84,0,6.85-7.22V337.54Z"/><path class="cls-3" d="M484.49,371.66h-5.91V337.54h5.91Z"/><path class="cls-3" d="M491.78,371.66V337.54h10.08a15.81,15.81,0,0,1,8,2,13.75,13.75,0,0,1,5.43,5.72,18.19,18.19,0,0,1,1.92,8.49v1.71A18.09,18.09,0,0,1,515.3,364a13.63,13.63,0,0,1-5.51,5.67,16.5,16.5,0,0,1-8.19,2Zm5.93-29.34v24.61h3.86a8.88,8.88,0,0,0,7.16-2.92q2.5-2.92,2.55-8.38v-1.9q0-5.55-2.42-8.48a8.53,8.53,0,0,0-7-2.93Z"/><path class="cls-3" d="M543.08,356.43h-14v10.5h16.38v4.73H523.14V337.54h22.15v4.78H529.07v9.42h14Z"/><path class="cls-3" d="M363.44,106V271a19,19,0,0,1-19,19H255.59a19,19,0,0,1-19-19V106a19,19,0,0,1,19-19h88.82A19,19,0,0,1,363.44,106Zm-19,4.76a4.77,4.77,0,0,0-4.76-4.76h-79.3a4.77,4.77,0,0,0-4.76,4.76v123.7a4.77,4.77,0,0,0,4.76,4.76h79.3a4.77,4.77,0,0,0,4.76-4.76ZM312.69,264.63A12.69,12.69,0,1,0,300,277.31,12.68,12.68,0,0,0,312.69,264.63Z"/><path class="cls-3" d="M310.92,187.72a9.68,9.68,0,0,0-2.4-6.89q-2.4-2.55-8.16-4.72a96.26,96.26,0,0,1-9.92-4.3,31.78,31.78,0,0,1-7.16-4.91,19.86,19.86,0,0,1-4.64-6.52,21.85,21.85,0,0,1-1.66-8.92q0-8.93,5.7-14.62t15.15-6.66V118.89h8.44v11.45q9.35,1.32,14.63,7.79t5.27,16.76H310.92q0-6.33-2.61-9.48a8.67,8.67,0,0,0-7-3.14,8.88,8.88,0,0,0-6.7,2.46,9.31,9.31,0,0,0-2.38,6.78,9,9,0,0,0,2.32,6.44q2.32,2.43,8.64,5a95.56,95.56,0,0,1,10.37,4.78,30,30,0,0,1,6.86,5.07,19.61,19.61,0,0,1,4.28,6.44,22.26,22.26,0,0,1,1.47,8.42q0,9-5.59,14.57t-15.41,6.6v10.5h-8.4V208.84Q286,207.67,280,201.16t-5.94-17.34h15.26q0,6.28,3,9.63c2,2.24,4.85,3.35,8.58,3.35a10.52,10.52,0,0,0,7.34-2.45A8.55,8.55,0,0,0,310.92,187.72Z"/><path class="cls-3" d="M165.11,426.45H154.39l-2.41,6.7H148.5l9.78-25.6h2.95l9.79,25.6h-3.46Zm-9.7-2.76h8.7l-4.36-12Z"/><path class="cls-3" d="M181.58,430.84a4.73,4.73,0,0,0,3-1,3.77,3.77,0,0,0,1.44-2.64h3.07a5.9,5.9,0,0,1-1.12,3.11,7.43,7.43,0,0,1-2.77,2.36,8.1,8.1,0,0,1-3.67.88,7.8,7.8,0,0,1-6.17-2.6,10.3,10.3,0,0,1-2.3-7.09v-.54a11.45,11.45,0,0,1,1-4.94,7.82,7.82,0,0,1,2.93-3.36,8.28,8.28,0,0,1,4.51-1.2,7.6,7.6,0,0,1,5.31,1.92,6.82,6.82,0,0,1,2.26,5h-3.07a4.5,4.5,0,0,0-1.4-3,4.34,4.34,0,0,0-3.1-1.18,4.53,4.53,0,0,0-3.84,1.78,8.37,8.37,0,0,0-1.37,5.16V424a8.18,8.18,0,0,0,1.36,5.07A4.57,4.57,0,0,0,181.58,430.84Z"/><path class="cls-3" d="M200.43,430.84a4.7,4.7,0,0,0,3-1,3.7,3.7,0,0,0,1.44-2.64H208a5.91,5.91,0,0,1-1.13,3.11,7.36,7.36,0,0,1-2.77,2.36,8,8,0,0,1-3.66.88,7.84,7.84,0,0,1-6.18-2.6,10.3,10.3,0,0,1-2.29-7.09v-.54a11.45,11.45,0,0,1,1-4.94A7.82,7.82,0,0,1,195.9,415a8.3,8.3,0,0,1,4.51-1.2,7.63,7.63,0,0,1,5.32,1.92,6.9,6.9,0,0,1,2.26,5h-3.08a4.46,4.46,0,0,0-1.4-3,4.34,4.34,0,0,0-3.1-1.18,4.55,4.55,0,0,0-3.84,1.78,8.37,8.37,0,0,0-1.36,5.16V424a8.25,8.25,0,0,0,1.35,5.07A4.58,4.58,0,0,0,200.43,430.84Z"/><path class="cls-3" d="M219.54,433.5a8.34,8.34,0,0,1-6.3-2.54,9.47,9.47,0,0,1-2.42-6.8v-.59a11.43,11.43,0,0,1,1.08-5.06,8.48,8.48,0,0,1,3-3.48,7.6,7.6,0,0,1,4.21-1.26,7.14,7.14,0,0,1,5.77,2.45q2.06,2.44,2,7v1.36H214.07a6.76,6.76,0,0,0,1.64,4.54,5.15,5.15,0,0,0,4,1.73,5.66,5.66,0,0,0,2.92-.7,7.37,7.37,0,0,0,2.09-1.86l2,1.54A8,8,0,0,1,219.54,433.5Zm-.41-17.05a4.31,4.31,0,0,0-3.3,1.43,6.94,6.94,0,0,0-1.66,4h9.53v-.25a6.22,6.22,0,0,0-1.33-3.84A4.09,4.09,0,0,0,219.13,416.45Z"/><path class="cls-3" d="M241.79,428.1a2.4,2.4,0,0,0-1-2.05,9.75,9.75,0,0,0-3.47-1.25,17,17,0,0,1-3.92-1.27,5.57,5.57,0,0,1-2.14-1.76,4.23,4.23,0,0,1-.7-2.42,4.94,4.94,0,0,1,2-4,7.72,7.72,0,0,1,5.06-1.62,8,8,0,0,1,5.24,1.67,5.33,5.33,0,0,1,2,4.28H241.6a3,3,0,0,0-1.14-2.31,4.25,4.25,0,0,0-2.85-1,4.42,4.42,0,0,0-2.78.77,2.43,2.43,0,0,0-1,2,2,2,0,0,0,.93,1.78,11.3,11.3,0,0,0,3.36,1.14,17.53,17.53,0,0,1,3.95,1.3,5.65,5.65,0,0,1,2.24,1.82,4.44,4.44,0,0,1,.73,2.59,4.88,4.88,0,0,1-2,4.09,8.58,8.58,0,0,1-5.29,1.54,9.55,9.55,0,0,1-4-.81,6.56,6.56,0,0,1-2.75-2.26,5.4,5.4,0,0,1-1-3.14h3.26a3.31,3.31,0,0,0,1.31,2.59,5.06,5.06,0,0,0,3.22,1,5.3,5.3,0,0,0,3-.74A2.3,2.3,0,0,0,241.79,428.1Z"/><path class="cls-3" d="M260.35,428.1a2.4,2.4,0,0,0-1-2.05,9.68,9.68,0,0,0-3.46-1.25,16.68,16.68,0,0,1-3.92-1.27,5.53,5.53,0,0,1-2.15-1.76,4.22,4.22,0,0,1-.69-2.42,5,5,0,0,1,2-4,7.74,7.74,0,0,1,5.06-1.62,8,8,0,0,1,5.25,1.67,5.32,5.32,0,0,1,2,4.28h-3.27a3,3,0,0,0-1.14-2.31,4.24,4.24,0,0,0-2.85-1,4.42,4.42,0,0,0-2.78.77,2.43,2.43,0,0,0-1,2,2,2,0,0,0,.93,1.78,11.28,11.28,0,0,0,3.37,1.14,17.43,17.43,0,0,1,3.94,1.3,5.65,5.65,0,0,1,2.24,1.82,4.44,4.44,0,0,1,.73,2.59,4.88,4.88,0,0,1-2,4.09,8.56,8.56,0,0,1-5.29,1.54,9.55,9.55,0,0,1-4-.81,6.56,6.56,0,0,1-2.75-2.26,5.46,5.46,0,0,1-1-3.14h3.25a3.34,3.34,0,0,0,1.31,2.59,5.06,5.06,0,0,0,3.22,1,5.35,5.35,0,0,0,3-.74A2.31,2.31,0,0,0,260.35,428.1Z"/><path class="cls-3" d="M282.78,425.08l.49,3.37.72-3,5.07-17.86h2.84l4.94,17.86.71,3.09.54-3.44,4-17.51h3.4l-6.21,25.6h-3.07L290.9,414.5l-.4-2-.41,2-5.46,18.65h-3.08l-6.19-25.6h3.38Z"/><path class="cls-3" d="M316,433.5a8.3,8.3,0,0,1-6.29-2.54,9.44,9.44,0,0,1-2.43-6.8v-.59a11.43,11.43,0,0,1,1.08-5.06,8.48,8.48,0,0,1,3-3.48,7.6,7.6,0,0,1,4.21-1.26,7.12,7.12,0,0,1,5.77,2.45q2.06,2.44,2.06,7v1.36H310.57a6.77,6.77,0,0,0,1.65,4.54,5.12,5.12,0,0,0,4,1.73,5.64,5.64,0,0,0,2.92-.7,7.24,7.24,0,0,0,2.09-1.86l2,1.54A8,8,0,0,1,316,433.5Zm-.41-17.05a4.31,4.31,0,0,0-3.3,1.43,6.93,6.93,0,0,0-1.65,4h9.53v-.25a6.22,6.22,0,0,0-1.34-3.84A4.09,4.09,0,0,0,315.63,416.45Z"/><path class="cls-3" d="M343.32,423.85a11.34,11.34,0,0,1-2,7,6.4,6.4,0,0,1-5.38,2.65,6.62,6.62,0,0,1-5.57-2.55l-.16,2.2h-3v-27h3.25v10.07a6.59,6.59,0,0,1,5.43-2.45,6.46,6.46,0,0,1,5.44,2.62,11.66,11.66,0,0,1,2,7.18Zm-3.25-.37a8.85,8.85,0,0,0-1.28-5.14,4.28,4.28,0,0,0-3.7-1.81,4.78,4.78,0,0,0-4.62,3v8.23a4.92,4.92,0,0,0,4.66,3,4.25,4.25,0,0,0,3.64-1.81A9.42,9.42,0,0,0,340.07,423.48Z"/><path class="cls-3" d="M360.21,423.13v10h-3.37v-25.6h9.44a9.48,9.48,0,0,1,6.58,2.15,7.25,7.25,0,0,1,2.38,5.67,7.14,7.14,0,0,1-2.33,5.74q-2.32,2-6.67,2Zm0-2.76h6.07a6.1,6.1,0,0,0,4.15-1.28,4.67,4.67,0,0,0,1.44-3.69,4.8,4.8,0,0,0-1.44-3.66,5.71,5.71,0,0,0-4-1.43h-6.26Z"/><path class="cls-3" d="M390.59,433.15a6.92,6.92,0,0,1-.46-2,7.26,7.26,0,0,1-5.41,2.36,6.72,6.72,0,0,1-4.62-1.59,5.16,5.16,0,0,1-1.8-4,5.35,5.35,0,0,1,2.26-4.61,10.61,10.61,0,0,1,6.35-1.65h3.17v-1.49a3.67,3.67,0,0,0-1-2.72,4.12,4.12,0,0,0-3-1,4.8,4.8,0,0,0-2.92.88A2.61,2.61,0,0,0,382,419.4h-3.27a4.44,4.44,0,0,1,1-2.75,6.8,6.8,0,0,1,2.74-2.1,9.14,9.14,0,0,1,3.81-.78,7.51,7.51,0,0,1,5.15,1.65,5.92,5.92,0,0,1,1.93,4.52v8.76a10.6,10.6,0,0,0,.67,4.16v.29Zm-5.4-2.48a5.77,5.77,0,0,0,2.9-.79,4.8,4.8,0,0,0,2-2.06v-3.9h-2.55c-4,0-6,1.16-6,3.5a3,3,0,0,0,1,2.39A4,4,0,0,0,385.19,430.67Z"/><path class="cls-3" d="M404.39,428.38l4.43-14.25h3.48l-7.65,21.95q-1.77,4.76-5.64,4.75l-.62-.06-1.21-.22v-2.64l.88.07a4.27,4.27,0,0,0,2.57-.67,4.73,4.73,0,0,0,1.52-2.44l.73-1.94-6.79-18.8h3.55Z"/><path class="cls-3" d="M435.85,433.15a6.92,6.92,0,0,1-.46-2A7.25,7.25,0,0,1,430,433.5a6.71,6.71,0,0,1-4.61-1.59,5.17,5.17,0,0,1-1.81-4,5.38,5.38,0,0,1,2.26-4.61,10.65,10.65,0,0,1,6.36-1.65h3.16v-1.49a3.67,3.67,0,0,0-1-2.72,4.11,4.11,0,0,0-3-1,4.78,4.78,0,0,0-2.92.88,2.59,2.59,0,0,0-1.18,2.13H424a4.5,4.5,0,0,1,1-2.75,6.87,6.87,0,0,1,2.74-2.1,9.21,9.21,0,0,1,3.81-.78,7.5,7.5,0,0,1,5.15,1.65,5.89,5.89,0,0,1,1.93,4.52v8.76a10.78,10.78,0,0,0,.67,4.16v.29Zm-5.39-2.48a5.83,5.83,0,0,0,2.9-.79,4.83,4.83,0,0,0,2-2.06v-3.9h-2.55c-4,0-6,1.16-6,3.5a3,3,0,0,0,1,2.39A3.94,3.94,0,0,0,430.46,430.67Z"/><path class="cls-3" d="M448.1,409.52v4.61h3.55v2.51H448.1v11.81a2.65,2.65,0,0,0,.48,1.72,2,2,0,0,0,1.62.57,7.84,7.84,0,0,0,1.54-.21v2.62a9.58,9.58,0,0,1-2.49.35,4,4,0,0,1-3.29-1.32,5.67,5.67,0,0,1-1.11-3.75V416.64h-3.46v-2.51h3.46v-4.61Z"/><path class="cls-3" d="M141,466a27.15,27.15,0,0,1,1.06-7.63,22.2,22.2,0,0,1,3.18-6.65,13.57,13.57,0,0,1,4.37-4.22l.67,2.15a14.06,14.06,0,0,0-4.21,6,26.3,26.3,0,0,0-1.8,9.05l0,1.5A26.26,26.26,0,0,0,146.77,478a14.08,14.08,0,0,0,3.55,4.67l-.67,2a14,14,0,0,1-4.46-4.36A24.42,24.42,0,0,1,141,466Z"/><path class="cls-3" d="M157,476.35h-3.25v-27H157Z"/><path class="cls-3" d="M161.34,466.66a11.29,11.29,0,0,1,1.1-5,8.14,8.14,0,0,1,3.06-3.44A8.33,8.33,0,0,1,170,457a8,8,0,0,1,6.29,2.69,10.37,10.37,0,0,1,2.4,7.16v.23a11.31,11.31,0,0,1-1.07,5,8.08,8.08,0,0,1-3,3.44A8.42,8.42,0,0,1,170,476.7a8,8,0,0,1-6.27-2.69,10.31,10.31,0,0,1-2.4-7.12Zm3.27.39a8.13,8.13,0,0,0,1.47,5.08,5,5,0,0,0,7.87,0,8.91,8.91,0,0,0,1.46-5.44,8.1,8.1,0,0,0-1.49-5.07,4.94,4.94,0,0,0-7.83,0A8.82,8.82,0,0,0,164.61,467.05Z"/><path class="cls-3" d="M182,466.68A11.19,11.19,0,0,1,184,459.6a6.59,6.59,0,0,1,5.45-2.63,6.52,6.52,0,0,1,5.43,2.47l.16-2.11h3v18.56a7.74,7.74,0,0,1-2.19,5.82,8.07,8.07,0,0,1-5.88,2.12,9.92,9.92,0,0,1-4-.87,7,7,0,0,1-3-2.41l1.69-1.95a6.35,6.35,0,0,0,5.11,2.58,5,5,0,0,0,3.7-1.34,5.08,5.08,0,0,0,1.33-3.76v-1.63a6.69,6.69,0,0,1-5.33,2.25A6.49,6.49,0,0,1,184,474,11.76,11.76,0,0,1,182,466.68Zm3.27.37a8.51,8.51,0,0,0,1.32,5.05,4.27,4.27,0,0,0,3.69,1.84,4.76,4.76,0,0,0,4.52-2.8v-8.68a4.82,4.82,0,0,0-4.48-2.73,4.32,4.32,0,0,0-3.71,1.85A9.29,9.29,0,0,0,185.23,467.05Z"/><path class="cls-3" d="M203,452.28a1.92,1.92,0,0,1,.48-1.33,2.16,2.16,0,0,1,2.88,0,1.89,1.89,0,0,1,.49,1.33,1.84,1.84,0,0,1-.49,1.32,1.92,1.92,0,0,1-3.36-1.32Zm3.52,24.07h-3.26v-19h3.26Z"/><path class="cls-3" d="M214.75,457.33l.1,2.39a6.93,6.93,0,0,1,5.7-2.75q6,0,6.08,6.81v12.57h-3.25V463.76a4.45,4.45,0,0,0-.94-3,3.78,3.78,0,0,0-2.88-1,4.74,4.74,0,0,0-2.78.85,5.82,5.82,0,0,0-1.86,2.21v13.56h-3.25v-19Z"/><path class="cls-3" d="M247.6,467.05a11.34,11.34,0,0,1-2,7,6.36,6.36,0,0,1-5.38,2.66,7,7,0,0,1-5.45-2.2v9.16h-3.25V457.33h3l.16,2.11a6.7,6.7,0,0,1,5.52-2.47,6.49,6.49,0,0,1,5.42,2.59,11.51,11.51,0,0,1,2,7.19Zm-3.25-.37A8.42,8.42,0,0,0,243,461.6a4.44,4.44,0,0,0-3.77-1.87,4.81,4.81,0,0,0-4.43,2.62v9.09a4.8,4.8,0,0,0,4.47,2.6,4.41,4.41,0,0,0,3.72-1.85A9.17,9.17,0,0,0,244.35,466.68Z"/><path class="cls-3" d="M263.47,476.35a6.92,6.92,0,0,1-.46-2,7.25,7.25,0,0,1-5.41,2.36,6.71,6.71,0,0,1-4.61-1.59,5.17,5.17,0,0,1-1.81-4,5.38,5.38,0,0,1,2.26-4.61,10.65,10.65,0,0,1,6.36-1.65H263v-1.49a3.67,3.67,0,0,0-1-2.72,4.11,4.11,0,0,0-3-1,4.78,4.78,0,0,0-2.92.88,2.59,2.59,0,0,0-1.18,2.13h-3.27a4.5,4.5,0,0,1,1-2.75,6.87,6.87,0,0,1,2.74-2.1,9.21,9.21,0,0,1,3.81-.78,7.5,7.5,0,0,1,5.15,1.65,5.89,5.89,0,0,1,1.93,4.52v8.76a10.78,10.78,0,0,0,.67,4.16v.29Zm-5.39-2.48a5.83,5.83,0,0,0,2.9-.79,4.83,4.83,0,0,0,2-2.06v-3.9h-2.55c-4,0-6,1.16-6,3.5a3,3,0,0,0,1,2.39A3.94,3.94,0,0,0,258.08,473.87Z"/><path class="cls-3" d="M277.27,471.58l4.43-14.25h3.48l-7.65,21.95q-1.77,4.75-5.64,4.75l-.61-.06-1.22-.22v-2.64l.88.07a4.32,4.32,0,0,0,2.58-.67,4.86,4.86,0,0,0,1.52-2.44l.72-1.94L269,457.33h3.55Z"/><path class="cls-3" d="M291.61,476.35h-3.25v-27h3.25Z"/><path class="cls-3" d="M296,466.66a11.29,11.29,0,0,1,1.09-5,8.11,8.11,0,0,1,7.54-4.66,8,8,0,0,1,6.28,2.69,10.37,10.37,0,0,1,2.4,7.16v.23a11.3,11.3,0,0,1-1.06,5,8.15,8.15,0,0,1-3,3.44,8.45,8.45,0,0,1-4.55,1.23,8,8,0,0,1-6.26-2.69,10.31,10.31,0,0,1-2.4-7.12Zm3.27.39a8.13,8.13,0,0,0,1.46,5.08,4.72,4.72,0,0,0,3.93,1.91,4.66,4.66,0,0,0,3.94-1.94,8.91,8.91,0,0,0,1.46-5.44,8.1,8.1,0,0,0-1.49-5.07,4.94,4.94,0,0,0-7.83,0A8.88,8.88,0,0,0,299.23,467.05Z"/><path class="cls-3" d="M325,474a4.7,4.7,0,0,0,3-1.05,3.68,3.68,0,0,0,1.44-2.64h3.08a5.91,5.91,0,0,1-1.13,3.11,7.36,7.36,0,0,1-2.77,2.36,8,8,0,0,1-3.66.88,7.84,7.84,0,0,1-6.18-2.6,10.3,10.3,0,0,1-2.3-7.09v-.54a11.45,11.45,0,0,1,1-4.94,7.82,7.82,0,0,1,2.93-3.36A8.3,8.3,0,0,1,325,457a7.63,7.63,0,0,1,5.32,1.92,6.9,6.9,0,0,1,2.26,5h-3.08a4.46,4.46,0,0,0-1.4-3,4.34,4.34,0,0,0-3.1-1.18,4.55,4.55,0,0,0-3.84,1.78,8.37,8.37,0,0,0-1.36,5.16v.62a8.24,8.24,0,0,0,1.35,5.06A4.58,4.58,0,0,0,325,474Z"/><path class="cls-3" d="M336.21,452.28a1.92,1.92,0,0,1,.48-1.33,2.16,2.16,0,0,1,2.88,0,1.89,1.89,0,0,1,.49,1.33,1.84,1.84,0,0,1-.49,1.32,1.92,1.92,0,0,1-3.36-1.32Zm3.52,24.07h-3.26v-19h3.26Z"/><path class="cls-3" d="M349.34,452.72v4.61h3.55v2.51h-3.55v11.81a2.65,2.65,0,0,0,.48,1.72,2,2,0,0,0,1.61.57,7.92,7.92,0,0,0,1.55-.21v2.62a9.65,9.65,0,0,1-2.5.35,4,4,0,0,1-3.28-1.32,5.67,5.67,0,0,1-1.11-3.75V459.84h-3.46v-2.51h3.46v-4.61Z"/><path class="cls-3" d="M362.91,471.58l4.43-14.25h3.48l-7.65,21.95Q361.4,484,357.53,484l-.61-.06-1.22-.22v-2.64l.88.07a4.32,4.32,0,0,0,2.58-.67,4.86,4.86,0,0,0,1.52-2.44l.72-1.94-6.79-18.8h3.56Z"/><path class="cls-3" d="M371.91,474.64a2.08,2.08,0,0,1,.5-1.41,2,2,0,0,1,1.51-.56,2,2,0,0,1,1.52.56,2,2,0,0,1,.51,1.41,1.89,1.89,0,0,1-.51,1.35,2,2,0,0,1-1.52.55,1.81,1.81,0,0,1-2-1.9Z"/><path class="cls-3" d="M388.94,474A4.73,4.73,0,0,0,392,473a3.75,3.75,0,0,0,1.44-2.64h3.07a5.9,5.9,0,0,1-1.12,3.11,7.43,7.43,0,0,1-2.77,2.36,8.07,8.07,0,0,1-3.67.88,7.8,7.8,0,0,1-6.17-2.6,10.3,10.3,0,0,1-2.3-7.09v-.54a11.45,11.45,0,0,1,1-4.94,7.82,7.82,0,0,1,2.93-3.36,8.28,8.28,0,0,1,4.51-1.2,7.6,7.6,0,0,1,5.31,1.92,6.82,6.82,0,0,1,2.26,5h-3.07a4.5,4.5,0,0,0-1.4-3,4.34,4.34,0,0,0-3.1-1.18,4.53,4.53,0,0,0-3.84,1.78,8.37,8.37,0,0,0-1.37,5.16v.62a8.17,8.17,0,0,0,1.36,5.06A4.57,4.57,0,0,0,388.94,474Z"/><path class="cls-3" d="M399.3,466.66a11.16,11.16,0,0,1,1.1-5,8.14,8.14,0,0,1,3.06-3.44,8.28,8.28,0,0,1,4.47-1.22,8,8,0,0,1,6.28,2.69,10.37,10.37,0,0,1,2.4,7.16v.23a11.3,11.3,0,0,1-1.06,5,8.08,8.08,0,0,1-3,3.44A8.45,8.45,0,0,1,408,476.7,8,8,0,0,1,401.7,474a10.31,10.31,0,0,1-2.4-7.12Zm3.27.39a8.13,8.13,0,0,0,1.47,5.08,5,5,0,0,0,7.86,0,8.91,8.91,0,0,0,1.46-5.44,8.1,8.1,0,0,0-1.48-5.07,5,5,0,0,0-7.84,0A8.88,8.88,0,0,0,402.57,467.05Z"/><path class="cls-3" d="M423.75,457.33l.09,2.11a7,7,0,0,1,5.64-2.47q4,0,5.43,3.06a7.22,7.22,0,0,1,2.47-2.21A7.31,7.31,0,0,1,441,457q6.25,0,6.36,6.63v12.75h-3.25V463.79a4.35,4.35,0,0,0-.93-3,4.1,4.1,0,0,0-3.13-1,4.29,4.29,0,0,0-3,1.09,4.37,4.37,0,0,0-1.39,2.9v12.63h-3.27V463.88c0-2.76-1.35-4.15-4.06-4.15a4.36,4.36,0,0,0-4.38,2.73v13.89h-3.25v-19Z"/><path class="cls-3" d="M459.75,466.13a27,27,0,0,1-1,7.52,21.87,21.87,0,0,1-3.15,6.63,13.86,13.86,0,0,1-4.43,4.33l-.69-2a14.11,14.11,0,0,0,4.35-6.44,27.68,27.68,0,0,0,1.68-9.7v-.56a29.17,29.17,0,0,0-.77-6.86,23.37,23.37,0,0,0-2.16-5.69,13.21,13.21,0,0,0-3.1-3.92l.69-2a13.89,13.89,0,0,1,4.42,4.29,22.22,22.22,0,0,1,3.14,6.63A27.7,27.7,0,0,1,459.75,466.13Z"/></svg>