<svg id="Layer_1" data-name="Layer 1" xmlns="http://www.w3.org/2000/svg" viewBox="0 0 600 544"><defs><style>.cls-1{fill:#ce0e2d;}.cls-2{opacity:0.07;}.cls-3{fill:#fff;}</style></defs><rect class="cls-1" y="0.03" width="600" height="544"/><path class="cls-2" d="M352.11,313.82c0-8.68.14-17.37-.06-26.05-.1-4.43,1.66-6.43,6-7.29,16.34-3.22,31.66-9,44.76-19.64,14.82-12,22.8-27.94,25-46.61,3.21-27.19-3.16-51.68-23.71-70.73-20.4-18.89-45.51-24.18-72.54-22.34-50.17,3.43-87.53,44.19-90.69,98.23-2.12,36.35,8,68.36,34.09,94.38,18.7,18.64,41.82,28.75,67.63,33.06,8.88,1.48,8.91,1.39,8.91,10.65V517c0,9.52,0,9.65-9.22,8.44-55.94-7.41-105.27-29.6-147.27-67.27C145.19,413.47,115,357.76,106.31,291.28,97.08,220.47,112.09,155.4,158,99.49,195.39,54,244.13,28,302.45,20.28c39.91-5.3,79-1.84,115.68,15.43,63.61,29.94,97.21,80.51,99.77,151,1.32,36.18-7.42,69.7-29.7,98.79-23.62,30.86-55.72,48.32-93.15,56.35-12,2.57-24.33,3.29-36.52,4.8-4.63.57-6.57-1.53-6.47-6.24C352.24,331.55,352.11,322.69,352.11,313.82Z"/><path class="cls-3" d="M297.29,141l-67,17.35a11.49,11.49,0,0,0-8.45,11.22V296.92H194a5.58,5.58,0,0,0-5.58,5.58v11.17a5.58,5.58,0,0,0,5.58,5.58h117.2v-167C311.16,144.71,304.34,139.19,297.29,141Zm-7.38,81.16a22.31,22.31,0,0,1-13.57,8.21c-1.75.38-3.55.48-5.32.7-.68.09-1-.22-.95-.91,0-1.29,0-2.58,0-3.87s0-2.53,0-3.79a.93.93,0,0,1,.88-1.07,14.46,14.46,0,0,0,6.52-2.86,10,10,0,0,0,3.65-6.79c.46-4-.46-7.53-3.46-10.3S271,198,267.1,198.24c-7.31.49-12.76,6.43-13.22,14.3a17.13,17.13,0,0,0,5,13.75,17.61,17.61,0,0,0,9.85,4.82c1.3.21,1.3.2,1.3,1.55V255.9c0,1.39,0,1.41-1.34,1.23a39.13,39.13,0,0,1-21.46-9.8A38.5,38.5,0,0,1,234.28,223c-1.35-10.32.84-19.8,7.53-27.94a31.72,31.72,0,0,1,21-11.54,29.61,29.61,0,0,1,16.85,2.25c9.26,4.36,14.16,11.73,14.53,22A21.67,21.67,0,0,1,289.91,222.17Z"/><path class="cls-3" d="M406,296.92H378.13V180.23c0-9.5-7.51-17.25-16.74-17.25H322.32v22.33h33.49V319.25H406a5.58,5.58,0,0,0,5.58-5.58V302.5A5.58,5.58,0,0,0,406,296.92Z"/><path class="cls-3" d="M146.05,416.93h15.49v4.73H140.12V387.54h5.93Z"/><path class="cls-3" d="M191.82,405.49a20.88,20.88,0,0,1-1.73,8.8,13.14,13.14,0,0,1-5,5.81,14.52,14.52,0,0,1-14.81,0,13.32,13.32,0,0,1-5-5.77,20.52,20.52,0,0,1-1.79-8.65v-1.92a20.79,20.79,0,0,1,1.77-8.82,13.36,13.36,0,0,1,5-5.84,13.55,13.55,0,0,1,7.4-2,13.75,13.75,0,0,1,7.39,2,13.13,13.13,0,0,1,5,5.77,20.64,20.64,0,0,1,1.78,8.75Zm-5.93-1.78q0-5.67-2.14-8.7a7.57,7.57,0,0,0-12.09,0q-2.17,3-2.22,8.52v2q0,5.63,2.19,8.7a7.07,7.07,0,0,0,6.08,3.07,7,7,0,0,0,6.06-3c1.42-2,2.12-4.93,2.12-8.77Z"/><path class="cls-3" d="M223.89,417.23a11.39,11.39,0,0,1-5.14,3.66,20.86,20.86,0,0,1-7.45,1.24,14.73,14.73,0,0,1-7.59-1.94,12.94,12.94,0,0,1-5.1-5.57,19.3,19.3,0,0,1-1.86-8.45V403.5q0-7.74,3.7-12.08t10.34-4.35c3.79,0,6.81.94,9,2.82a12.15,12.15,0,0,1,4,8.12h-5.81q-1-6.17-7.15-6.16a7,7,0,0,0-6.06,2.87q-2.07,2.86-2.14,8.42v2.62c0,3.68.78,6.55,2.33,8.58a7.7,7.7,0,0,0,6.48,3.06q4.55,0,6.47-2.07v-6.68h-7v-4.5h12.94Z"/><path class="cls-3" d="M236.66,421.66h-5.91V387.54h5.91Z"/><path class="cls-3" d="M271,421.66h-5.93l-15.21-24.21v24.21H244V387.54h5.93l15.26,24.3v-24.3H271Z"/><path class="cls-3" d="M295.91,409v12.65H290V387.54H303q5.71,0,9.08,3a10,10,0,0,1,3.36,7.88,9.72,9.72,0,0,1-3.29,7.82Q308.89,409,303,409Zm0-4.78H303a7,7,0,0,0,4.82-1.49,5.49,5.49,0,0,0,1.67-4.3,5.92,5.92,0,0,0-1.69-4.42,6.51,6.51,0,0,0-4.64-1.7h-7.29Z"/><path class="cls-3" d="M347.89,405.49a20.88,20.88,0,0,1-1.73,8.8,13.14,13.14,0,0,1-5,5.81,14.52,14.52,0,0,1-14.81,0,13.24,13.24,0,0,1-5-5.77,20.37,20.37,0,0,1-1.8-8.65v-1.92a20.79,20.79,0,0,1,1.77-8.82,13.36,13.36,0,0,1,5-5.84,13.55,13.55,0,0,1,7.4-2,13.75,13.75,0,0,1,7.39,2,13.13,13.13,0,0,1,5,5.77,20.49,20.49,0,0,1,1.78,8.75ZM342,403.71q0-5.67-2.14-8.7a7.57,7.57,0,0,0-12.09,0q-2.18,3-2.22,8.52v2q0,5.63,2.19,8.7a7.08,7.08,0,0,0,6.09,3.07,7,7,0,0,0,6-3c1.42-2,2.12-4.93,2.12-8.77Z"/><path class="cls-3" d="M366.34,408.54h-6.61v13.12H353.8V387.54h12q5.91,0,9.12,2.65c2.14,1.77,3.21,4.32,3.21,7.67a9.61,9.61,0,0,1-1.65,5.73,10.46,10.46,0,0,1-4.61,3.56l7.67,14.21v.3h-6.36Zm-6.61-4.78h6.09a6.77,6.77,0,0,0,4.69-1.52,5.23,5.23,0,0,0,1.69-4.13,5.6,5.6,0,0,0-1.56-4.24,6.62,6.62,0,0,0-4.65-1.55h-6.26Z"/><path class="cls-3" d="M407.24,392.32H396.6v29.34h-5.89V392.32H380.17v-4.78h27.07Z"/><path class="cls-3" d="M428,413.72H414.79L412,421.66h-6.16l12.89-34.12h5.32L437,421.66h-6.19Zm-11.55-4.78h9.89l-4.95-14.16Z"/><path class="cls-3" d="M446.78,416.93h15.49v4.73H440.85V387.54h5.93Z"/></svg>