<svg id="Layer_1" data-name="Layer 1" xmlns="http://www.w3.org/2000/svg" xmlns:xlink="http://www.w3.org/1999/xlink" viewBox="0 0 600 544"><defs><style>.cls-1{fill:#ce0e2d;}.cls-2,.cls-8{opacity:0.07;}.cls-3{fill:url(#linear-gradient);}.cls-4{fill:url(#linear-gradient-2);}.cls-5{fill:url(#linear-gradient-3);}.cls-6{fill:url(#linear-gradient-4);}.cls-7{fill:url(#linear-gradient-5);}.cls-9{fill:#fff;}</style><linearGradient id="linear-gradient" x1="24.51" y1="292.83" x2="258.55" y2="292.83" gradientUnits="userSpaceOnUse"><stop offset="0.73"/><stop offset="1" stop-opacity="0"/></linearGradient><linearGradient id="linear-gradient-2" x1="252.42" y1="215.16" x2="440.47" y2="215.16" xlink:href="#linear-gradient"/><linearGradient id="linear-gradient-3" x1="344.69" y1="129.92" x2="501" y2="129.92" xlink:href="#linear-gradient"/><linearGradient id="linear-gradient-4" x1="260.88" y1="65.54" x2="380.17" y2="65.54" xlink:href="#linear-gradient"/><linearGradient id="linear-gradient-5" x1="138.24" y1="41.01" x2="233" y2="41.01" xlink:href="#linear-gradient"/></defs><rect class="cls-1" y="0.03" width="600" height="544"/><g class="cls-2"><ellipse class="cls-3" cx="141.53" cy="292.83" rx="117.02" ry="54.17"/><ellipse class="cls-4" cx="346.45" cy="215.16" rx="94.03" ry="43.52"/><ellipse class="cls-5" cx="422.84" cy="129.92" rx="78.16" ry="36.18"/><ellipse class="cls-6" cx="320.53" cy="65.54" rx="59.65" ry="27.61"/><ellipse class="cls-7" cx="185.62" cy="41.01" rx="47.38" ry="21.93"/></g><path class="cls-8" d="M488.92,416.56a5.33,5.33,0,0,1,6,4.51,5.53,5.53,0,0,1,0,1.52v57c-4.31.28-6.62.28-10.33.28-69.67,0-112.39-39-112.39-81.41,0-52.49,52.46-82,110.7-82a246.15,246.15,0,0,1,57,6.6V282.93a237.6,237.6,0,0,0-56.76-6c-94.08,0-158.3,54.79-158.3,121.59,0,78,75.12,120.45,158.59,120.45a260.35,260.35,0,0,0,56.19-4.89V422.57a5.31,5.31,0,0,1,4.51-6,4.84,4.84,0,0,1,1.52,0H561.5V384.73H467.71v31.83Z"/><path class="cls-9" d="M146.05,416.93h15.49v4.73H140.12V387.54h5.93Z"/><path class="cls-9" d="M191.82,405.49a20.88,20.88,0,0,1-1.73,8.8,13.14,13.14,0,0,1-5,5.81,14.52,14.52,0,0,1-14.81,0,13.32,13.32,0,0,1-5-5.77,20.52,20.52,0,0,1-1.79-8.65v-1.92a20.79,20.79,0,0,1,1.77-8.82,13.36,13.36,0,0,1,5-5.84,13.55,13.55,0,0,1,7.4-2,13.75,13.75,0,0,1,7.39,2,13.13,13.13,0,0,1,5,5.77,20.64,20.64,0,0,1,1.78,8.75Zm-5.93-1.78q0-5.67-2.14-8.7a7.57,7.57,0,0,0-12.09,0q-2.17,3-2.22,8.52v2q0,5.63,2.19,8.7a7.07,7.07,0,0,0,6.08,3.07,7,7,0,0,0,6.06-3c1.42-2,2.12-4.93,2.12-8.77Z"/><path class="cls-9" d="M223.89,417.23a11.39,11.39,0,0,1-5.14,3.66,20.86,20.86,0,0,1-7.45,1.24,14.73,14.73,0,0,1-7.59-1.94,12.94,12.94,0,0,1-5.1-5.57,19.3,19.3,0,0,1-1.86-8.45V403.5q0-7.74,3.7-12.08t10.34-4.35c3.79,0,6.81.94,9,2.82a12.15,12.15,0,0,1,4,8.12h-5.81q-1-6.17-7.15-6.16a7,7,0,0,0-6.06,2.87q-2.07,2.86-2.14,8.42v2.62c0,3.68.78,6.55,2.33,8.58a7.7,7.7,0,0,0,6.48,3.06q4.55,0,6.47-2.07v-6.68h-7v-4.5h12.94Z"/><path class="cls-9" d="M236.66,421.66h-5.91V387.54h5.91Z"/><path class="cls-9" d="M271,421.66h-5.93l-15.21-24.21v24.21H244V387.54h5.93l15.26,24.3v-24.3H271Z"/><path class="cls-9" d="M295.91,409v12.65H290V387.54H303q5.71,0,9.08,3a10,10,0,0,1,3.36,7.88,9.72,9.72,0,0,1-3.29,7.82Q308.89,409,303,409Zm0-4.78H303a7,7,0,0,0,4.82-1.49,5.49,5.49,0,0,0,1.67-4.3,5.92,5.92,0,0,0-1.69-4.42,6.51,6.51,0,0,0-4.64-1.7h-7.29Z"/><path class="cls-9" d="M347.89,405.49a20.88,20.88,0,0,1-1.73,8.8,13.14,13.14,0,0,1-5,5.81,14.52,14.52,0,0,1-14.81,0,13.24,13.24,0,0,1-5-5.77,20.37,20.37,0,0,1-1.8-8.65v-1.92a20.79,20.79,0,0,1,1.77-8.82,13.36,13.36,0,0,1,5-5.84,13.55,13.55,0,0,1,7.4-2,13.75,13.75,0,0,1,7.39,2,13.13,13.13,0,0,1,5,5.77,20.49,20.49,0,0,1,1.78,8.75ZM342,403.71q0-5.67-2.14-8.7a7.57,7.57,0,0,0-12.09,0q-2.18,3-2.22,8.52v2q0,5.63,2.19,8.7a7.08,7.08,0,0,0,6.09,3.07,7,7,0,0,0,6-3c1.42-2,2.12-4.93,2.12-8.77Z"/><path class="cls-9" d="M366.34,408.54h-6.61v13.12H353.8V387.54h12q5.91,0,9.12,2.65c2.14,1.77,3.21,4.32,3.21,7.67a9.61,9.61,0,0,1-1.65,5.73,10.46,10.46,0,0,1-4.61,3.56l7.67,14.21v.3h-6.36Zm-6.61-4.78h6.09a6.77,6.77,0,0,0,4.69-1.52,5.23,5.23,0,0,0,1.69-4.13,5.6,5.6,0,0,0-1.56-4.24,6.62,6.62,0,0,0-4.65-1.55h-6.26Z"/><path class="cls-9" d="M407.24,392.32H396.6v29.34h-5.89V392.32H380.17v-4.78h27.07Z"/><path class="cls-9" d="M428,413.72H414.79L412,421.66h-6.16l12.89-34.12h5.32L437,421.66h-6.19Zm-11.55-4.78h9.89l-4.95-14.16Z"/><path class="cls-9" d="M446.78,416.93h15.49v4.73H440.85V387.54h5.93Z"/><path class="cls-9" d="M411.62,302.5v11.17a5.58,5.58,0,0,1-5.58,5.58H355.81V185.31H322.32V163h39.07c9.23,0,16.74,7.75,16.74,17.25V296.92H406A5.58,5.58,0,0,1,411.62,302.5ZM311.16,152.23v167H194a5.58,5.58,0,0,1-5.58-5.58V302.5a5.58,5.58,0,0,1,5.58-5.58h27.91V169.58a11.49,11.49,0,0,1,8.45-11.22l67-17.35C304.34,139.19,311.16,144.71,311.16,152.23ZM269.9,180.3c0,2.2,3.86,4,8.63,4s8.62-1.79,8.62-4-3.86-4-8.62-4S269.9,178.09,269.9,180.3Zm-17.74-3.55c0,1.75,3.07,3.17,6.86,3.17s6.85-1.42,6.85-3.17-3.07-3.17-6.85-3.17S252.16,175,252.16,176.75Zm.48,44.25c9.35,0,16.92-3.51,16.92-7.83s-7.57-7.84-16.92-7.84-16.92,3.51-16.92,7.84S243.29,221,252.64,221ZM293,256.31H273.58v6.6H278a1.1,1.1,0,0,1,1.25.93,1.61,1.61,0,0,1,0,.31V276c-.9.06-1.37.06-2.14.06-14.43,0-23.28-8.08-23.28-16.86,0-10.88,10.87-17,22.93-17a51,51,0,0,1,11.81,1.36v-8.31A48.9,48.9,0,0,0,276.79,234C257.3,234,244,245.33,244,259.16c0,16.16,15.56,24.95,32.85,24.95a54.69,54.69,0,0,0,11.63-1v-19a1.12,1.12,0,0,1,.94-1.25H293Zm2.87-54.38c0-3.47-6.09-6.29-13.6-6.29s-13.59,2.82-13.59,6.29,6.09,6.3,13.59,6.3S295.87,205.41,295.87,201.93Zm8.76-12.32c0-2.89-5.06-5.23-11.31-5.23s-11.3,2.34-11.3,5.23,5.06,5.23,11.3,5.23S304.63,192.5,304.63,189.61Z"/></svg>