<svg id="Layer_1" data-name="Layer 1" xmlns="http://www.w3.org/2000/svg" xmlns:xlink="http://www.w3.org/1999/xlink" viewBox="0 0 600 544"><defs><style>.cls-1{fill:#ce0e2d;}.cls-2{opacity:0.07;}.cls-3{fill:url(#linear-gradient);}.cls-4{fill:url(#linear-gradient-2);}.cls-5{fill:url(#linear-gradient-3);}.cls-6{fill:url(#linear-gradient-4);}.cls-7{fill:url(#linear-gradient-5);}.cls-8{fill:#fff;}</style><linearGradient id="linear-gradient" x1="28.25" y1="397.23" x2="295.21" y2="397.23" gradientUnits="userSpaceOnUse"><stop offset="0.73"/><stop offset="1" stop-opacity="0"/></linearGradient><linearGradient id="linear-gradient-2" x1="288.21" y1="308.64" x2="502.71" y2="308.64" xlink:href="#linear-gradient"/><linearGradient id="linear-gradient-3" x1="393.45" y1="211.42" x2="571.75" y2="211.42" xlink:href="#linear-gradient"/><linearGradient id="linear-gradient-4" x1="297.86" y1="137.98" x2="433.93" y2="137.98" xlink:href="#linear-gradient"/><linearGradient id="linear-gradient-5" x1="157.98" y1="110" x2="266.06" y2="110" xlink:href="#linear-gradient"/></defs><rect class="cls-1" y="0.03" width="600" height="544"/><g class="cls-2"><ellipse class="cls-3" cx="161.73" cy="397.23" rx="133.48" ry="61.78"/><ellipse class="cls-4" cx="395.46" cy="308.64" rx="107.25" ry="49.64"/><ellipse class="cls-5" cx="482.6" cy="211.42" rx="89.15" ry="41.26"/><ellipse class="cls-6" cx="365.9" cy="137.98" rx="68.03" ry="31.49"/><ellipse class="cls-7" cx="212.02" cy="110" rx="54.04" ry="25.02"/></g><path class="cls-8" d="M297.29,141l-67,17.35a11.49,11.49,0,0,0-8.45,11.22V296.92H194a5.58,5.58,0,0,0-5.58,5.58v11.17a5.58,5.58,0,0,0,5.58,5.58h117.2v-167C311.16,144.71,304.34,139.19,297.29,141ZM276.08,200c5.46,0,9.89,2.05,9.89,4.58s-4.43,4.58-9.89,4.58-9.89-2.05-9.89-4.58S270.62,200,276.08,200Zm-22.36-3.12c4.34,0,7.85,1.63,7.85,3.63s-3.51,3.64-7.85,3.64-7.86-1.63-7.86-3.64S249.38,196.83,253.72,196.83Zm-7.31,54.36c-10.72,0-19.4-4-19.4-9s8.68-9,19.4-9,19.4,4,19.4,9S257.12,251.19,246.41,251.19Zm34-14.64c-8.61,0-15.59-3.23-15.59-7.22s7-7.21,15.59-7.21S296,225.35,296,229.33,289,236.55,280.38,236.55ZM293,221.2c-7.15,0-13-2.68-13-6s5.8-6,13-6,13,2.68,13,6S300.2,221.2,293,221.2Z"/><path class="cls-8" d="M406,296.92H378.13V180.23c0-9.5-7.51-17.25-16.74-17.25H322.32v22.33h33.49V319.25H406a5.58,5.58,0,0,0,5.58-5.58V302.5A5.58,5.58,0,0,0,406,296.92Z"/><path class="cls-8" d="M146.05,416.93h15.49v4.73H140.12V387.54h5.93Z"/><path class="cls-8" d="M191.82,405.49a20.88,20.88,0,0,1-1.73,8.8,13.14,13.14,0,0,1-5,5.81,14.52,14.52,0,0,1-14.81,0,13.32,13.32,0,0,1-5-5.77,20.52,20.52,0,0,1-1.79-8.65v-1.92a20.79,20.79,0,0,1,1.77-8.82,13.36,13.36,0,0,1,5-5.84,13.55,13.55,0,0,1,7.4-2,13.75,13.75,0,0,1,7.39,2,13.13,13.13,0,0,1,5,5.77,20.64,20.64,0,0,1,1.78,8.75Zm-5.93-1.78q0-5.67-2.14-8.7a7.57,7.57,0,0,0-12.09,0q-2.17,3-2.22,8.52v2q0,5.63,2.19,8.7a7.07,7.07,0,0,0,6.08,3.07,7,7,0,0,0,6.06-3c1.42-2,2.12-4.93,2.12-8.77Z"/><path class="cls-8" d="M223.89,417.23a11.39,11.39,0,0,1-5.14,3.66,20.86,20.86,0,0,1-7.45,1.24,14.73,14.73,0,0,1-7.59-1.94,12.94,12.94,0,0,1-5.1-5.57,19.3,19.3,0,0,1-1.86-8.45V403.5q0-7.74,3.7-12.08t10.34-4.35c3.79,0,6.81.94,9,2.82a12.15,12.15,0,0,1,4,8.12h-5.81q-1-6.17-7.15-6.16a7,7,0,0,0-6.06,2.87q-2.07,2.86-2.14,8.42v2.62c0,3.68.78,6.55,2.33,8.58a7.7,7.7,0,0,0,6.48,3.06q4.55,0,6.47-2.07v-6.68h-7v-4.5h12.94Z"/><path class="cls-8" d="M236.66,421.66h-5.91V387.54h5.91Z"/><path class="cls-8" d="M271,421.66h-5.93l-15.21-24.21v24.21H244V387.54h5.93l15.26,24.3v-24.3H271Z"/><path class="cls-8" d="M295.91,409v12.65H290V387.54H303q5.71,0,9.08,3a10,10,0,0,1,3.36,7.88,9.72,9.72,0,0,1-3.29,7.82Q308.89,409,303,409Zm0-4.78H303a7,7,0,0,0,4.82-1.49,5.49,5.49,0,0,0,1.67-4.3,5.92,5.92,0,0,0-1.69-4.42,6.51,6.51,0,0,0-4.64-1.7h-7.29Z"/><path class="cls-8" d="M347.89,405.49a20.88,20.88,0,0,1-1.73,8.8,13.14,13.14,0,0,1-5,5.81,14.52,14.52,0,0,1-14.81,0,13.24,13.24,0,0,1-5-5.77,20.37,20.37,0,0,1-1.8-8.65v-1.92a20.79,20.79,0,0,1,1.77-8.82,13.36,13.36,0,0,1,5-5.84,13.55,13.55,0,0,1,7.4-2,13.75,13.75,0,0,1,7.39,2,13.13,13.13,0,0,1,5,5.77,20.49,20.49,0,0,1,1.78,8.75ZM342,403.71q0-5.67-2.14-8.7a7.57,7.57,0,0,0-12.09,0q-2.18,3-2.22,8.52v2q0,5.63,2.19,8.7a7.08,7.08,0,0,0,6.09,3.07,7,7,0,0,0,6-3c1.42-2,2.12-4.93,2.12-8.77Z"/><path class="cls-8" d="M366.34,408.54h-6.61v13.12H353.8V387.54h12q5.91,0,9.12,2.65c2.14,1.77,3.21,4.32,3.21,7.67a9.61,9.61,0,0,1-1.65,5.73,10.46,10.46,0,0,1-4.61,3.56l7.67,14.21v.3h-6.36Zm-6.61-4.78h6.09a6.77,6.77,0,0,0,4.69-1.52,5.23,5.23,0,0,0,1.69-4.13,5.6,5.6,0,0,0-1.56-4.24,6.62,6.62,0,0,0-4.65-1.55h-6.26Z"/><path class="cls-8" d="M407.24,392.32H396.6v29.34h-5.89V392.32H380.17v-4.78h27.07Z"/><path class="cls-8" d="M428,413.72H414.79L412,421.66h-6.16l12.89-34.12h5.32L437,421.66h-6.19Zm-11.55-4.78h9.89l-4.95-14.16Z"/><path class="cls-8" d="M446.78,416.93h15.49v4.73H440.85V387.54h5.93Z"/></svg>