<svg id="Layer_1" data-name="Layer 1" xmlns="http://www.w3.org/2000/svg" viewBox="0 0 600 544"><defs><style>.cls-1{fill:#ce0e2d;}.cls-2{opacity:0.07;}.cls-3{fill:#fff;}</style></defs><rect class="cls-1" y="0.03" width="600" height="544"/><g class="cls-2"><path d="M398.35,293.7a2.52,2.52,0,0,0-2.27,2.34c-9.37,93.48-33.21,161.65-74.29,199.1a2.92,2.92,0,0,0-.18,4.13l.05.05a3.24,3.24,0,0,0,.86.66,122.77,122.77,0,0,0,36.59,5.77c82.54,0,152.22-89.17,176.19-209.43a2.51,2.51,0,0,0-2.25-2.67h-45Z"/><path d="M240.84,506c26.13,0,107.91,0,135.21-177.6.5-3.32-3.48-4.61-4.41-1.43-12.8,43.62-38.71,114.51-71.75,114.51-23.72,0-51.11-36.51-80-145.89a2.37,2.37,0,0,0-2.2-1.92l-150.65,0a2.68,2.68,0,0,0-2.35,2.52v.2a.89.89,0,0,0,0,.23v.4C89.05,418.37,158.71,506,240.84,506Z"/><path d="M223.83,215.6c-.51,3.32,3.5,4.61,4.43,1.43C241.12,173.44,267,102.52,300,102.52c23.72,0,51.11,36.51,80,145.89a2.33,2.33,0,0,0,2.17,1.92H533a2.65,2.65,0,0,0,2.32-2.94V247C510.78,125.63,441.2,38,359.06,38,332.93,38,251.2,38,223.83,215.6Z"/><path d="M67,250.38H201.74a2.52,2.52,0,0,0,2.18-2.32c9.47-93.48,33.21-161.67,74.29-199.2a2.94,2.94,0,0,0,0-4.17h0a2.52,2.52,0,0,0-.85-.63,121.24,121.24,0,0,0-36.5-5.77c-82.51,0-152.19,89.14-176.16,209.4v.2A2.52,2.52,0,0,0,67,250.38Z"/></g><path class="cls-3" d="M166.46,416.93H182v4.73H160.54V387.54h5.92Z"/><path class="cls-3" d="M212.24,405.49a20.88,20.88,0,0,1-1.74,8.8,13.05,13.05,0,0,1-4.95,5.81,14.54,14.54,0,0,1-14.82,0,13.3,13.3,0,0,1-5-5.77,20.22,20.22,0,0,1-1.79-8.65v-1.92a20.79,20.79,0,0,1,1.77-8.82,13.3,13.3,0,0,1,5-5.84,13.51,13.51,0,0,1,7.39-2,13.79,13.79,0,0,1,7.4,2,13.13,13.13,0,0,1,5,5.77,20.79,20.79,0,0,1,1.78,8.75Zm-5.93-1.78q0-5.67-2.15-8.7a7.57,7.57,0,0,0-12.09,0q-2.16,3-2.21,8.52v2q0,5.63,2.19,8.7a7.07,7.07,0,0,0,6.08,3.07,7,7,0,0,0,6.06-3c1.41-2,2.12-4.93,2.12-8.77Z"/><path class="cls-3" d="M244.3,417.23a11.31,11.31,0,0,1-5.13,3.66,20.92,20.92,0,0,1-7.46,1.24,14.75,14.75,0,0,1-7.59-1.94,13.06,13.06,0,0,1-5.1-5.57,19.58,19.58,0,0,1-1.86-8.45V403.5q0-7.74,3.7-12.08t10.34-4.35c3.8,0,6.81.94,9.05,2.82a12.23,12.23,0,0,1,4,8.12h-5.82q-1-6.17-7.14-6.16a7,7,0,0,0-6.06,2.87q-2.07,2.86-2.15,8.42v2.62q0,5.52,2.34,8.58a7.68,7.68,0,0,0,6.48,3.06q4.55,0,6.46-2.07v-6.68h-7v-4.5H244.3Z"/><path class="cls-3" d="M257.07,421.66h-5.9V387.54h5.9Z"/><path class="cls-3" d="M291.43,421.66H285.5l-15.21-24.21v24.21h-5.93V387.54h5.93l15.26,24.3v-24.3h5.88Z"/><path class="cls-3" d="M336.55,417.23a11.31,11.31,0,0,1-5.13,3.66,20.92,20.92,0,0,1-7.46,1.24,14.75,14.75,0,0,1-7.59-1.94,13.06,13.06,0,0,1-5.1-5.57,19.58,19.58,0,0,1-1.86-8.45V403.5q0-7.74,3.7-12.08t10.34-4.35c3.8,0,6.81.94,9.05,2.82a12.23,12.23,0,0,1,4,8.12h-5.82q-1-6.17-7.14-6.16a7,7,0,0,0-6.06,2.87q-2.07,2.86-2.15,8.42v2.62q0,5.52,2.34,8.58a7.68,7.68,0,0,0,6.48,3.06q4.54,0,6.46-2.07v-6.68h-7v-4.5h12.94Z"/><path class="cls-3" d="M368,387.54v22.8a11.1,11.1,0,0,1-3.48,8.62,13.25,13.25,0,0,1-9.27,3.17q-5.86,0-9.31-3.13t-3.44-8.68V387.54h5.9v22.83a7.22,7.22,0,0,0,1.74,5.22,6.73,6.73,0,0,0,5.11,1.81q6.84,0,6.84-7.22V387.54Z"/><path class="cls-3" d="M380.61,421.66h-5.9V387.54h5.9Z"/><path class="cls-3" d="M387.9,421.66V387.54H398a15.85,15.85,0,0,1,8,2,13.79,13.79,0,0,1,5.42,5.72,18.19,18.19,0,0,1,1.93,8.49v1.71a18.07,18.07,0,0,1-1.94,8.53,13.57,13.57,0,0,1-5.51,5.67,16.5,16.5,0,0,1-8.19,2Zm5.93-29.34v24.61h3.87a8.88,8.88,0,0,0,7.16-2.92q2.49-2.92,2.54-8.38v-1.9q0-5.55-2.41-8.48a8.58,8.58,0,0,0-7-2.93Z"/><path class="cls-3" d="M439.21,406.43h-14v10.5h16.38v4.73H419.26V387.54h22.15v4.78H425.19v9.42h14Z"/><path class="cls-3" d="M319.53,196.26H367V310.67A8.35,8.35,0,0,1,358.6,319H241.4a8.35,8.35,0,0,1-8.37-8.37V148.82a8.35,8.35,0,0,1,8.37-8.37h69.76v47.44A8.4,8.4,0,0,0,319.53,196.26Zm9.77,22.32H270.7a4.21,4.21,0,0,0-4.19,4.19v2.79a4.21,4.21,0,0,0,4.19,4.19h58.6a4.2,4.2,0,0,0,4.18-4.19v-2.79A4.2,4.2,0,0,0,329.3,218.58Zm4.18,26.51a4.19,4.19,0,0,0-4.18-4.18H270.7a4.2,4.2,0,0,0-4.19,4.18v2.79a4.2,4.2,0,0,0,4.19,4.19h58.6a4.19,4.19,0,0,0,4.18-4.19Zm0,22.33a4.2,4.2,0,0,0-4.18-4.19H270.7a4.21,4.21,0,0,0-4.19,4.19v2.79a4.2,4.2,0,0,0,4.19,4.18h58.6a4.19,4.19,0,0,0,4.18-4.18ZM367,185.1H322.32V140.45h2.13a8.38,8.38,0,0,1,5.93,2.45l34.15,34.18A8.33,8.33,0,0,1,367,183Z"/></svg>