<svg id="Layer_1" data-name="Layer 1" xmlns="http://www.w3.org/2000/svg" viewBox="0 0 600 544"><defs><style>.cls-1{fill:#ce0e2d;}.cls-2{opacity:0.07;}.cls-3{fill:#fff;}</style></defs><rect class="cls-1" y="0.03" width="600" height="544"/><g class="cls-2"><path d="M398.35,293.7a2.52,2.52,0,0,0-2.27,2.34c-9.37,93.48-33.21,161.65-74.29,199.1a2.92,2.92,0,0,0-.18,4.13l.05.05a3.24,3.24,0,0,0,.86.66,122.77,122.77,0,0,0,36.59,5.77c82.54,0,152.22-89.17,176.19-209.43a2.51,2.51,0,0,0-2.25-2.67h-45Z"/><path d="M240.84,506c26.13,0,107.91,0,135.21-177.6.5-3.32-3.48-4.61-4.41-1.43-12.8,43.62-38.71,114.51-71.75,114.51-23.72,0-51.11-36.51-80-145.89a2.37,2.37,0,0,0-2.2-1.92l-150.65,0a2.68,2.68,0,0,0-2.35,2.52v.2a.89.89,0,0,0,0,.23v.4C89.05,418.37,158.71,506,240.84,506Z"/><path d="M223.83,215.6c-.51,3.32,3.5,4.61,4.43,1.43C241.12,173.44,267,102.52,300,102.52c23.72,0,51.11,36.51,80,145.89a2.33,2.33,0,0,0,2.17,1.92H533a2.65,2.65,0,0,0,2.32-2.94V247C510.78,125.63,441.2,38,359.06,38,332.93,38,251.2,38,223.83,215.6Z"/><path d="M67,250.38H201.74a2.52,2.52,0,0,0,2.18-2.32c9.47-93.48,33.21-161.67,74.29-199.2a2.94,2.94,0,0,0,0-4.17h0a2.52,2.52,0,0,0-.85-.63,121.24,121.24,0,0,0-36.5-5.77c-82.51,0-152.19,89.14-176.16,209.4v.2A2.52,2.52,0,0,0,67,250.38Z"/></g><path class="cls-3" d="M83.43,413.23l5.25-25.69h5.88l-7.88,34.12H81l-6.49-24.91-6.63,24.91h-5.7l-7.87-34.12H60.2l5.3,25.64L72,387.54h5Z"/><path class="cls-3" d="M118.84,406.43h-14v10.5h16.39v4.73H98.89V387.54H121v4.78H104.82v9.42h14Z"/><path class="cls-3" d="M126,421.66V387.54h11.69q5.79,0,8.81,2.32c2,1.54,3,3.85,3,6.91A7.41,7.41,0,0,1,148.3,401a8.17,8.17,0,0,1-3.7,2.91,7.57,7.57,0,0,1,4.28,2.82,8.26,8.26,0,0,1,1.51,5,9.06,9.06,0,0,1-3.09,7.38q-3.08,2.58-8.82,2.58ZM132,401.9h5.82a6.69,6.69,0,0,0,4.32-1.25,4.3,4.3,0,0,0,1.56-3.55,4.36,4.36,0,0,0-1.44-3.66,7.29,7.29,0,0,0-4.49-1.12H132Zm0,4.36v10.67h6.59a6.39,6.39,0,0,0,4.36-1.38,4.87,4.87,0,0,0,1.57-3.85q0-5.32-5.44-5.44Z"/><path class="cls-3" d="M174.2,409v12.65h-5.93V387.54h13c3.82,0,6.84,1,9.09,3a10,10,0,0,1,3.36,7.88,9.69,9.69,0,0,1-3.29,7.81q-3.3,2.81-9.23,2.8Zm0-4.78h7.12a7,7,0,0,0,4.83-1.49,5.49,5.49,0,0,0,1.67-4.3,5.92,5.92,0,0,0-1.69-4.42,6.51,6.51,0,0,0-4.64-1.7H174.2Z"/><path class="cls-3" d="M213.88,413.72H200.66l-2.77,7.94h-6.16l12.89-34.12h5.32l12.92,34.12h-6.19Zm-11.56-4.78h9.89l-4.94-14.16Z"/><path class="cls-3" d="M234.34,403.71l7.85-16.17h6.56L237.32,409.1v12.56h-6V409.1L219.9,387.54h6.59Z"/><path class="cls-3" d="M270.34,416.93h15.49v4.73H264.41V387.54h5.93Z"/><path class="cls-3" d="M316.11,405.49a20.88,20.88,0,0,1-1.73,8.8,13.14,13.14,0,0,1-5,5.81,14.52,14.52,0,0,1-14.81,0,13.32,13.32,0,0,1-5-5.77,20.37,20.37,0,0,1-1.79-8.65v-1.92a20.79,20.79,0,0,1,1.77-8.82,13.3,13.3,0,0,1,5-5.84,13.55,13.55,0,0,1,7.4-2,13.75,13.75,0,0,1,7.39,2,13.13,13.13,0,0,1,5,5.77,20.64,20.64,0,0,1,1.78,8.75Zm-5.93-1.78q0-5.67-2.14-8.7A7.57,7.57,0,0,0,296,395q-2.18,3-2.22,8.52v2q0,5.63,2.19,8.7a7.07,7.07,0,0,0,6.08,3.07,7,7,0,0,0,6.06-3c1.42-2,2.12-4.93,2.12-8.77Z"/><path class="cls-3" d="M348.18,417.23a11.39,11.39,0,0,1-5.14,3.66,20.86,20.86,0,0,1-7.45,1.24,14.73,14.73,0,0,1-7.59-1.94,12.94,12.94,0,0,1-5.1-5.57,19.3,19.3,0,0,1-1.86-8.45V403.5q0-7.74,3.7-12.08t10.33-4.35q5.7,0,9.05,2.82a12.15,12.15,0,0,1,4,8.12h-5.81q-1-6.17-7.15-6.16a7,7,0,0,0-6.06,2.87q-2.07,2.86-2.14,8.42v2.62q0,5.52,2.33,8.58a7.7,7.7,0,0,0,6.48,3.06q4.54,0,6.47-2.07v-6.68h-7v-4.5h12.94Z"/><path class="cls-3" d="M361,421.66H355V387.54H361Z"/><path class="cls-3" d="M395.31,421.66h-5.93l-15.21-24.21v24.21h-5.93V387.54h5.93l15.26,24.3v-24.3h5.88Z"/><path class="cls-3" d="M440.43,417.23a11.39,11.39,0,0,1-5.14,3.66,20.86,20.86,0,0,1-7.45,1.24,14.73,14.73,0,0,1-7.59-1.94,12.94,12.94,0,0,1-5.1-5.57,19.3,19.3,0,0,1-1.86-8.45V403.5q0-7.74,3.7-12.08t10.33-4.35q5.7,0,9.05,2.82a12.15,12.15,0,0,1,4,8.12h-5.81q-1-6.17-7.15-6.16a7,7,0,0,0-6.06,2.87q-2.07,2.86-2.14,8.42v2.62q0,5.52,2.33,8.58a7.7,7.7,0,0,0,6.48,3.06q4.54,0,6.47-2.07v-6.68h-7v-4.5h12.94Z"/><path class="cls-3" d="M471.9,387.54v22.8a11.1,11.1,0,0,1-3.48,8.62,13.25,13.25,0,0,1-9.27,3.17c-3.9,0-7-1-9.3-3.13s-3.45-5-3.45-8.68V387.54h5.91v22.83a7.26,7.26,0,0,0,1.73,5.22,6.75,6.75,0,0,0,5.11,1.81q6.84,0,6.85-7.22V387.54Z"/><path class="cls-3" d="M484.49,421.66h-5.91V387.54h5.91Z"/><path class="cls-3" d="M491.78,421.66V387.54h10.08a15.81,15.81,0,0,1,8,2,13.75,13.75,0,0,1,5.43,5.72,18.19,18.19,0,0,1,1.92,8.49v1.71A18.06,18.06,0,0,1,515.3,414a13.63,13.63,0,0,1-5.51,5.67,16.5,16.5,0,0,1-8.19,2Zm5.93-29.34v24.61h3.86a8.88,8.88,0,0,0,7.16-2.92q2.5-2.92,2.55-8.38v-1.9q0-5.55-2.42-8.48a8.56,8.56,0,0,0-7-2.93Z"/><path class="cls-3" d="M543.08,406.43h-14v10.5h16.38v4.73H523.14V387.54h22.15v4.78H529.07v9.42h14Z"/><path class="cls-3" d="M363.44,141V306a19,19,0,0,1-19,19H255.59a19,19,0,0,1-19-19V141a19,19,0,0,1,19-19h88.82A19,19,0,0,1,363.44,141Zm-19,4.76a4.77,4.77,0,0,0-4.76-4.76h-79.3a4.77,4.77,0,0,0-4.76,4.76v123.7a4.77,4.77,0,0,0,4.76,4.76h79.3a4.77,4.77,0,0,0,4.76-4.76ZM312.69,299.63A12.69,12.69,0,1,0,300,312.31,12.68,12.68,0,0,0,312.69,299.63Z"/><path class="cls-3" d="M310.92,222.72a9.68,9.68,0,0,0-2.4-6.89q-2.4-2.55-8.16-4.72a96.26,96.26,0,0,1-9.92-4.3,31.78,31.78,0,0,1-7.16-4.91,19.86,19.86,0,0,1-4.64-6.52,21.85,21.85,0,0,1-1.66-8.92q0-8.93,5.7-14.62t15.15-6.66V153.89h8.44v11.45q9.35,1.32,14.63,7.79t5.27,16.76H310.92q0-6.33-2.61-9.48a8.67,8.67,0,0,0-7-3.14,8.88,8.88,0,0,0-6.7,2.46,9.31,9.31,0,0,0-2.38,6.78,9,9,0,0,0,2.32,6.44q2.32,2.43,8.64,5a95.56,95.56,0,0,1,10.37,4.78,30,30,0,0,1,6.86,5.07,19.61,19.61,0,0,1,4.28,6.44,22.26,22.26,0,0,1,1.47,8.42q0,9-5.59,14.57t-15.41,6.6v10.5h-8.4V243.84Q286,242.67,280,236.16t-5.94-17.34h15.26q0,6.28,3,9.63c2,2.24,4.85,3.35,8.58,3.35a10.52,10.52,0,0,0,7.34-2.45A8.55,8.55,0,0,0,310.92,222.72Z"/></svg>