<svg width="510" height="462" viewBox="0 0 510 462" xmlns="http://www.w3.org/2000/svg" xmlns:xlink="http://www.w3.org/1999/xlink"><title>Group 3</title><defs><path d="M68 74.64C26.042 115.645 0 172.85 0 236.134 0 360.877 101.184 462 226 462s226-101.123 226-225.865c0-55.356-19.926-106.06-53-145.34V0H68v74.64z" id="a"/><path d="M219.472 247.383c-4.15-6.475-9.13-13.76-7.47-29.948 1.66-16.188 5.81-42.898 7.47-63.133 1.66-20.235-2.002-33.355-7.47-42.898C187.107 63.65 173 9.42 171.34 4.564c-1.66-4.857-7.47-5.666-10.788-3.238-3.32 2.428-14.108 14.57-15.768 28.33-1.66 13.76-1.66 34.803 5.81 50.99 7.468 16.19 15.767 32.377 1.66 59.896C142.844 158.89 92.094 178.708 0 200c6.028 6.414 12.36 14.748 19 25 9.96 15.38 18 26 35 35s31.65 12.01 45 26c8.9 9.326 40.03 47.326 93.388 114H326c-62.167-86.636-97.676-137.51-106.528-152.617z" id="c"/><path d="M56.035 23.46C30.585 1.334 12.88-5.14 2.923 4.032c-9.96 9.173 5.532 29.408 46.473 60.705l6.64-41.28z" id="e"/><path d="M55.154 110.7C24.694 110.7 0 86.01 0 55.55S24.693.394 55.154.394c30.46 0 55.153 24.693 55.153 55.154 0 30.46-24.693 55.153-55.153 55.153zm.197-15.546c22.01 0 39.86-17.842 39.86-39.852 0-22.01-17.84-39.853-39.85-39.853-22.02 0-39.86 17.84-39.86 39.85s17.846 39.85 39.856 39.85z" id="g"/><path d="M.18 113.338c8.197 4.227 17.498 6.613 27.357 6.613 33.015 0 59.78-26.76 59.78-59.77C87.317 27.47 61.047.89 28.452.4l-.36 19.924c21.753.297 39.296 18.024 39.296 39.85 0 22.008-17.843 39.85-39.853 39.85-6.6 0-12.826-1.604-18.308-4.444L.18 113.338z" id="i"/><path d="M13.077 38.042c5.81 3.237 20.747 13.76 30.706 3.237 6.64-7.02 4.426-15.38-6.64-25.1L11.42 0C5.332 2.698 1.736 6.475.628 11.332c-1.66 7.284-.83 19.425 12.45 26.71z" id="j"/><path d="M49.175 80.13c-6.64 6.476-16.598 4.857-24.897-1.618-8.3-6.476-16.598-18.617-19.917-22.664C1.04 51.8-.61 43.708.21 36.423c.83-7.285 2.49-16.188 9.13-20.235C13.766 13.49 21.986 8.094 34 0v36.423c5.69 7.015 9.92 12.41 12.685 16.188 4.15 5.67 9.13 21.05 2.49 27.52z" id="l"/><path d="M47 61c4.98-5.666 3-14 0-21-2-4.667-5.333-10.667-10-18V0c-9.114 1.62-16.16 3.777-21.14 6.475C8.39 10.522 2.582 16.997.922 22.663c-1.66 5.666-1.66 14.57 4.98 21.854 6.64 7.284 13.503 12.14 19.2 16.997C30.797 66.37 42.02 66.666 47 61z" id="n"/></defs><g fill="none" fill-rule="evenodd"><g transform="translate(29 10)"><ellipse fill="#044766" cx="226" cy="226.135" rx="226" ry="225.865"/><path d="M.963 247h450.074C440.444 361.97 343.737 452 226 452 108.264 452 11.556 361.97.963 247z" fill="#11779C"/></g><path d="M85.865 151.367l35.667-.638c3.337-14.02 12.097-22.27 26.28-24.74-29.364-9-50.117-2.79-62.26 18.61-12.143-21.4-32.896-27.61-62.26-18.62 14.183 2.474 22.943 10.72 26.28 24.74l35.667.636v.01l.31-.005.31.007v-.01z" fill="#146B4E"/><path d="M99.08 129.254c12.087-8.423 28.332-9.51 48.733-3.263-11.86 2.07-19.93 8.18-24.206 18.32l-25.96-.53 1.432-14.52z" fill-opacity=".2" fill="#0F3544"/><path d="M86 148.42c34.054-18.605 62.72-15.624 86 8.942-10.007.626-26.895-2.506-40.03 13.782H40.03C26.894 154.856 10.006 157.988 0 157.362c23.28-24.566 51.946-27.547 86-8.942z" fill="#1C815A"/><path d="M90.653 145.995c24.84-12.305 46.73-12.784 65.668-1.435v13.344c-8.01.93-16.8 3.877-24.35 13.24H87.69l2.968-25.15z" fill-opacity=".2" fill="#0F3544"/><path fill="#AB2912" d="M137 182l-13 75H51l-15-76"/><path d="M136.718 183.624l-.957 5.526-95.31 14.403-3.93-19.93h100.2z" fill-opacity=".2" fill="#0F3544"/><path fill-opacity=".1" fill="#0F3544" d="M70 256.768V180h17.117v76.768"/><path fill="#AB2912" d="M26 187h122v-20H26"/><path fill-opacity=".1" fill="#0F3544" d="M63 167h25v20H63"/><path d="M339 297c111.88 0 171-1.504 171-10s-65.93-10-171-10-171 1.104-171 10 59.12 10 171 10z" fill-opacity=".5" fill="#044766"/><path fill="#CCC" d="M387 282h-97l16-73h67"/><path fill-opacity=".2" fill="#222" d="M296 255l84-9-4-22-74 3"/><path d="M271 282h135v9c0 2.21-1.79 4-4 4H275c-2.21 0-4-1.79-4-4v-9zm-99-95h332v40c0 6.627-5.373 12-12 12H184c-6.627 0-12-5.373-12-12v-40z" fill="#DADADA"/><path d="M172 196h332V12c0-6.627-5.373-12-12-12H184c-6.627 0-12 5.373-12 12v184z" fill="#393939"/><path fill="#F61" d="M186 181h304V14H186"/><path d="M220 88h168c2.21 0 4 1.79 4 4v89H216V92c0-2.21 1.79-4 4-4z" fill="#FF9633"/><path d="M236 110h137c2.21 0 4 1.79 4 4v67H232v-67c0-2.21 1.79-4 4-4z" fill="#FFC472"/><path d="M220 88h168c2.21 0 4 1.79 4 4v7H216v-7c0-2.21 1.79-4 4-4z" fill="#FFAD50"/><path d="M241 116h13c1.105 0 2 .895 2 2s-.895 2-2 2h-13c-1.105 0-2-.895-2-2s.895-2 2-2zm-1 10h14c.552 0 1 .448 1 1s-.448 1-1 1h-14c-.552 0-1-.448-1-1s.448-1 1-1zm0 8h23c.552 0 1 .448 1 1s-.448 1-1 1h-23c-.552 0-1-.448-1-1s.448-1 1-1zm0 8h28c.552 0 1 .448 1 1s-.448 1-1 1h-28c-.552 0-1-.448-1-1s.448-1 1-1zm0 8h29c.552 0 1 .448 1 1s-.448 1-1 1h-29c-.552 0-1-.448-1-1s.448-1 1-1zm0-4h25c.552 0 1 .448 1 1s-.448 1-1 1h-25c-.552 0-1-.448-1-1s.448-1 1-1zm0 8h23c.552 0 1 .448 1 1s-.448 1-1 1h-23c-.552 0-1-.448-1-1s.448-1 1-1zm0-24h30c.552 0 1 .448 1 1s-.448 1-1 1h-30c-.552 0-1-.448-1-1s.448-1 1-1zm0 8h27c.552 0 1 .448 1 1s-.448 1-1 1h-27c-.552 0-1-.448-1-1s.448-1 1-1z" fill="#FFF"/><path d="M291 38h168c2.21 0 4 1.79 4 4v112c0 2.21-1.79 4-4 4H291c-2.21 0-4-1.79-4-4V42c0-2.21 1.79-4 4-4z" fill="#EAEAEA"/><path d="M291 38h168c2.21 0 4 1.79 4 4v7H287v-7c0-2.21 1.79-4 4-4z" fill="#FF9633"/><path d="M406.43 135.955h36c2.21 0 4 1.79 4 4v7c0 2.21-1.79 4-4 4h-36c-2.21 0-4-1.79-4-4v-7c0-2.21 1.79-4 4-4z" fill="#FFF"/><g transform="translate(402 67)"><rect fill="#FFF" width="44" height="64" rx="4"/><circle stroke="#1588AF" stroke-width="2" cx="22" cy="27" r="12"/><rect fill="#F61" x="5" y="45" width="34" height="5" rx="2"/><rect fill="#DFF4F8" x="5" y="52" width="34" height="5" rx="2"/><rect fill="#A6A6A6" x="5" y="5" width="17" height="4" rx="2"/><rect fill="#CCC" x="14" y="25" width="16" height="4" rx="2"/></g><g transform="translate(353 67)"><rect fill="#FFF" width="44" height="52" rx="4"/><rect fill="#A6A6A6" x="5" y="5" width="34" height="4" rx="2"/><path d="M6 17h14c.552 0 1 .448 1 1s-.448 1-1 1H6c-.552 0-1-.448-1-1s.448-1 1-1zm0 8h23c.552 0 1 .448 1 1s-.448 1-1 1H6c-.552 0-1-.448-1-1s.448-1 1-1zm0-4h30c.552 0 1 .448 1 1s-.448 1-1 1H6c-.552 0-1-.448-1-1s.448-1 1-1zm0 8h27c.552 0 1 .448 1 1s-.448 1-1 1H6c-.552 0-1-.448-1-1s.448-1 1-1z" fill="#CCC"/></g><g transform="translate(353 124)"><path d="M4 0h36c2.21 0 4 1.79 4 4v30H0V4c0-2.21 1.79-4 4-4z" fill="#FFF"/><path d="M6 14h29c.552 0 1 .448 1 1s-.448 1-1 1H6c-.552 0-1-.448-1-1s.448-1 1-1zm0 4h32c.552 0 1 .448 1 1s-.448 1-1 1H6c-.552 0-1-.448-1-1s.448-1 1-1z" fill="#CCC"/><rect fill="#A6A6A6" x="5" y="5" width="26" height="4" rx="2"/></g><g transform="translate(304 67)"><rect fill="#FFF" width="44" height="43" rx="4"/><rect fill="#DFF4F8" x="5" y="33" width="34" height="5" rx="2"/><path d="M6 15h29c.552 0 1 .448 1 1s-.448 1-1 1H6c-.552 0-1-.448-1-1s.448-1 1-1zm0 8h29c.552 0 1 .448 1 1s-.448 1-1 1H6c-.552 0-1-.448-1-1s.448-1 1-1zm0-4h32c.552 0 1 .448 1 1s-.448 1-1 1H6c-.552 0-1-.448-1-1s.448-1 1-1zm0 8h22c.552 0 1 .448 1 1s-.448 1-1 1H6c-.552 0-1-.448-1-1s.448-1 1-1z" fill="#CCC"/><rect fill="#A6A6A6" x="5" y="5" width="22" height="4" rx="2"/></g><g transform="translate(304 115)"><path d="M4 0h36c2.21 0 4 1.79 4 4v39H0V4c0-2.21 1.79-4 4-4z" fill="#FFF"/><rect fill="#A6A6A6" x="5" y="5" width="29" height="4" rx="2"/><path d="M23.043 35c5.482 0 10.273-4.7 10.273-10.08 0-6.22-4.79-10.92-10.273-10.92-4.13 0-7.605 1.997-9.524 5.11" stroke="#3DC170" stroke-width="4"/><path d="M21.937 36c-5.482 0-11.13-3.86-11.13-10.08C10.807 23.68 11 22 12 20" stroke="#FFD60B" stroke-width="7"/></g><path d="M172 163L415 0H184c-6.627 0-12 5.373-12 12v151z" fill-opacity=".25" fill="#FFF"/><path d="M217 369h239v3c0 2.21-1.79 4-4 4H221c-2.21 0-4-1.79-4-4v-3z" fill="#A6A6A6"/><path fill="#DADADA" d="M240 320h190l26 49H217"/><path d="M346.925 320H240l-23 49h59.188l70.737-49z" fill-opacity=".25" fill="#FFF"/><path d="M35.25 374c45 0 123.75.752 123.75 5 0 4.247-85.78 5-123.75 5-7.34 0-11.25.162-11.25-4.286 0-4.448 3.296-5.714 11.25-5.714z" fill-opacity=".5" fill="#044766"/><path fill="#1C815A" d="M22 286l8.094 93h57.812L96 286"/><path fill="#2EAB73" d="M24 314l3.45 39h62.1L93 314"/><path fill-opacity=".2" fill="#0F3544" d="M69 380l8.217-97L96 286.464 87.783 380"/><path fill-opacity=".2" fill="#0F3544" d="M96 285H22l1.217 14 72.098-4.8"/><path fill="#DFF4F8" d="M99.85 269h-81.7L17 289h84"/><path fill-opacity=".2" fill="#0F3544" d="M68 269h31.858L101 289H70.176"/><g transform="translate(29)"><mask id="b" fill="#fff"><use xlink:href="#a"/></mask><path d="M132.822 352.79c2.992 3.978 6.05 8.38 9.178 13.21 9.96 15.38 18 26 35 35s31.65 12.01 45 26c8.9 9.326 40.03 47.326 93.388 114H449c-62.167-86.636-97.676-137.51-106.528-152.617-4.15-6.475-9.13-13.76-7.47-29.948 1.66-16.188 5.81-42.898 7.47-63.133 1.66-20.235-2.002-33.355-7.47-42.898C310.107 204.65 296 150.42 294.34 145.564c-1.66-4.857-7.47-5.666-10.788-3.238-.166.12-.35.266-.55.434V56.573c0-16.835-19.274-18.14-34.557-21.138-38.522-5.94-76.963-5.886-117.494 0C118.38 38.732 101 41.227 101 56.573v274.79c0 11.033 12.398 17.677 31.822 21.427z" fill-opacity=".2" fill="#0F3544" mask="url(#b)"/><g mask="url(#b)"><g transform="translate(102 130)"><mask id="d" fill="#fff"><use xlink:href="#c"/></mask><use fill="#FFC472" xlink:href="#c"/><path d="M186 137c11-20-26-67-24-142 0 7.376-3 8.71-9 4-3.333 140.667-4 202-2 184 3-27 24-26 35-46z" fill-opacity=".2" fill="#AB2912" style="mix-blend-mode:multiply" mask="url(#d)"/></g><g transform="translate(50 107)"><mask id="f" fill="#fff"><use xlink:href="#e"/></mask><use fill="#FFC472" xlink:href="#e"/><path d="M30 52V-4h-4c-.667 27.333-3 45-7 53l11 3z" fill-opacity=".2" fill="#AB2912" style="mix-blend-mode:multiply" mask="url(#f)"/></g><g transform="translate(80 20)"><path d="M91 326c-49.833 0-91-5.533-91-25.637V25.573C0 10.227 17.376 7.733 29.95 4.435c40.53-5.886 78.97-5.94 117.493 0C162.726 7.435 182 8.738 182 25.573v274.79C182 320.113 140.833 326 91 326z" fill="#393939"/><circle fill="#666" cx="91.5" cy="12.5" r="5.5"/><rect fill="#FFF" x="8" y="25" width="165" height="278" rx="2"/><g transform="translate(34 73.87)"><mask id="h" fill="#fff"><use xlink:href="#g"/></mask><path fill="#1C815A" mask="url(#h)" d="M-14.773 36.908l69.927 18.64v-71.24h-69.927"/><path fill="#FFAD50" mask="url(#h)" d="M55.154 55.61l-66.82-26.427 33.41-47.73"/><path fill="#D43046" mask="url(#h)" d="M54.825 55.548L-11.03 4.638v124.12h27.546"/></g><g transform="translate(61.454 69)"><use fill="#3DC270" xlink:href="#i"/><path stroke="#FFF" stroke-width="3" d="M-1.835 113.987L8.578 93.553l1.34.695c5.4 2.797 11.4 4.277 17.62 4.277 21.18 0 38.35-17.17 38.35-38.352 0-20.983-16.86-38.063-37.817-38.35l-1.5-.02.42-22.924 1.498.02c33.446.5 60.34 27.78 60.34 61.27 0 33.84-27.436 61.28-61.28 61.28-9.89 0-19.444-2.35-28.044-6.78l-1.327-.69z"/></g><rect fill="#3DC270" x="24" y="206" width="64" height="8" rx="2"/><rect fill="#3DC270" x="65" y="117" width="52" height="16" rx="2"/><rect fill="#A6A6A6" x="24" y="226" width="90" height="8" rx="2"/><rect fill="#A6A6A6" x="24" y="242" width="71" height="8" rx="2"/><rect fill="#A6A6A6" x="24" y="258" width="80" height="8" rx="2"/><rect fill="#A6A6A6" x="24" y="274" width="45" height="8" rx="2"/><rect fill="#A6A6A6" x="137" y="226" width="20" height="8" rx="2"/><rect fill="#A6A6A6" x="78" y="138" width="25" height="8" rx="2"/><rect fill="#A6A6A6" x="137" y="242" width="20" height="8" rx="2"/><rect fill="#A6A6A6" x="137" y="258" width="20" height="8" rx="2"/><rect fill="#A6A6A6" x="137" y="274" width="20" height="8" rx="2"/><path d="M10 25h161c1.105 0 2 .895 2 2v25H8V27c0-1.105.895-2 2-2z" fill="#DADADA"/><path d="M0 193V25.57C0 10.227 17.376 7.733 29.95 4.436c40.53-5.885 78.97-5.94 117.493 0 15.283 3 34.557 4.3 34.557 21.134v48.39L0 193z" fill-opacity=".25" fill="#FFF"/></g><g transform="translate(50 269)"><mask id="k" fill="#fff"><use xlink:href="#j"/></mask><use fill="#FFC472" xlink:href="#j"/><path d="M53 29c-8.667 6-17.333 5.333-26-2-8.667-7.333-16.667-15.333-24-24L16-8l37 37z" fill-opacity=".2" fill="#AB2912" style="mix-blend-mode:multiply" mask="url(#k)"/></g><g transform="translate(46 208)"><mask id="m" fill="#fff"><use xlink:href="#l"/></mask><use fill="#FFC472" xlink:href="#l"/><path d="M34 36c-7.333-10-15.333-14.667-24-14l-3-9 9-7 18 5v25z" fill-opacity=".2" fill="#AB2912" style="mix-blend-mode:multiply" mask="url(#m)"/></g><g transform="translate(43 161)"><mask id="o" fill="#fff"><use xlink:href="#n"/></mask><use fill="#FFC472" xlink:href="#n"/><path d="M21 10c-1.333-4 .667-6.667 6-8l10-4v24c-4-6.667-9.333-10.667-16-12z" fill-opacity=".2" fill="#AB2912" style="mix-blend-mode:multiply" mask="url(#o)"/></g></g></g></g></svg>
