<?xml version="1.0" encoding="utf-8"?>
<!-- Generator: Adobe Illustrator 22.0.1, SVG Export Plug-In . SVG Version: 6.00 Build 0)  -->
<svg version="1.1" id="Layer_1" xmlns="http://www.w3.org/2000/svg" xmlns:xlink="http://www.w3.org/1999/xlink" x="0px" y="0px" height="100%" width="100%;"
	 viewBox="0 0 124.6 36.5" style="enable-background:new 0 0 124.6 36.5;" xml:space="preserve">
<style type="text/css">
	.st0{fill:#4D4E53;}
	.st1{fill:#0091DA;}
</style>
<path class="st0" d="M97.1,11.7c-1.5,0-2.9,0.6-3.7,1.8L93.2,12h-1.9v16.2h2.3v-5.6c0.7,0.7,2,1.1,3.2,1.1c3.2,0,5.3-2.6,5.3-6.3
	C102.1,14,100.1,11.7,97.1,11.7L97.1,11.7z M96.4,21.7c-1,0-2.2-0.5-2.8-1.2V17c0-1.9,1.2-3.2,3-3.2c1.9,0,3.1,1.4,3.1,3.7
	C99.8,20.2,98.5,21.7,96.4,21.7L96.4,21.7z M35.1,7.8v15.7h2.4V18h3.2c3.3,0,5.6-2,5.6-5.1c0-3-2.2-5.1-5.6-5.1H35.1z M37.5,9.8h2.9
	c2.2,0,3.5,1.1,3.5,3c0,1.9-1.3,3-3.5,3h-2.9V9.8z M53.3,11.8c-1.3,0-2.6,0.6-3.2,1.7L49.9,12h-1.9v11.5h2.3v-6.2c0-2.2,1-3.4,3-3.4
	c0.3,0,0.8,0.1,1.3,0.2l0.3-2C54.4,11.9,53.8,11.8,53.3,11.8L53.3,11.8z M57.8,10.3c0.9,0,1.5-0.6,1.5-1.5c0-0.9-0.6-1.5-1.5-1.5
	c-0.9,0-1.5,0.6-1.5,1.5C56.3,9.7,57,10.3,57.8,10.3L57.8,10.3z M59,23.5v-3.3V12h-2.3v11.5H59z M67.9,11.7c-1.5,0-2.9,0.7-3.7,1.8
	L64,12h-2v11.5h2.3v-6.5c0-1.9,1.2-3.3,3-3.3c1.6,0,2.6,1,2.6,2.6v7.2h2.3v-7.5C72.2,13.5,70.5,11.7,67.9,11.7L67.9,11.7z M80,13.8
	c1,0,2,0.4,2.9,1.1l1-1.7c-1-0.9-2.6-1.5-4.1-1.5c-3.4,0-5.8,2.5-5.8,6c0,3.7,2.3,6,5.7,6c1.6,0,3.3-0.6,4.2-1.5l-1-1.7
	c-0.9,0.7-1.8,1-2.9,1c-2.2,0-3.7-1.5-3.7-3.9C76.4,15.4,77.8,13.8,80,13.8L80,13.8z M119.6,21.8c-0.8,0-1.1-0.3-1.1-1.2V7.1h-2.3
	v13.8c0,1.9,1,2.9,3,2.9c0.5,0,1-0.1,1.3-0.2l-0.2-1.9C120.1,21.7,119.8,21.8,119.6,21.8L119.6,21.8z M87.2,10.3
	c0.9,0,1.5-0.6,1.5-1.5c0-0.9-0.6-1.5-1.5-1.5c-0.9,0-1.5,0.6-1.5,1.5C85.7,9.7,86.3,10.3,87.2,10.3L87.2,10.3z M88.3,23.5v-3.2V12
	H86v11.5H88.3z M110.9,16.6c-0.7-0.2-1.7-0.3-2.5-0.3c-3,0-4.8,1.5-4.8,3.9c0,2.1,1.7,3.6,4.2,3.6c1.5,0,2.7-0.6,3.5-1.6
	c0.3,1,1.2,1.6,2.3,1.6c0.5,0,1-0.1,1.3-0.2l-0.2-1.8c-0.2,0-0.4,0.1-0.6,0.1c-0.6,0-0.8-0.3-0.8-0.9v-5c0-2.7-1.8-4.3-4.7-4.3
	c-1.4,0-3,0.4-4.4,1l0.7,1.9c1-0.6,2.2-0.9,3.3-0.9c1.8,0,2.8,0.8,2.8,2.4V16.6z M110.9,18.9c0,1.9-1.1,2.9-2.9,2.9
	c-1.3,0-2.1-0.7-2.1-1.9c0-1.3,1-2,2.8-2c0.9,0,1.5,0.1,2.2,0.2V18.9z"/>
<path class="st1" d="M29.6,12.6c0-7-5.4-12-12.9-12C7.6,0.6,0.6,7.7,0.6,17.1c0,9.8,7.5,18,17.3,18.9V23.5c-4.6-0.4-7.7-3.8-7.7-8.3
	c0-4.3,2.9-7.5,6.9-7.5c3.7,0,6.1,2.3,6.1,5.7c0,3-1.9,5-5.3,5.5v4.6C25,23.3,29.6,19.1,29.6,12.6z"/>
<g>
	<path class="st0" d="M122.2,7c1,0,1.7,0.7,1.7,1.7c0,1-0.7,1.7-1.7,1.7c-1,0-1.7-0.7-1.7-1.7C120.5,7.7,121.2,7,122.2,7z
		 M122.2,10.1c0.8,0,1.4-0.6,1.4-1.4c0-0.8-0.6-1.4-1.4-1.4c-0.8,0-1.4,0.6-1.4,1.4C120.8,9.5,121.4,10.1,122.2,10.1z M121.5,7.8
		h0.8c0.4,0,0.7,0.2,0.7,0.6c0,0.3-0.2,0.5-0.4,0.5l0.5,0.7h-0.5L122.2,9h-0.3v0.7h-0.4V7.8z M121.9,8.7h0.4c0.2,0,0.3-0.1,0.3-0.3
		c0-0.2-0.1-0.3-0.3-0.3h-0.4V8.7z"/>
</g>
</svg>
